<svg xmlns="http://www.w3.org/2000/svg" viewBox="0 0 393.52 393.52"><defs><style>.cls-1{fill:#d7e6f7;}.cls-2{fill:none;}</style></defs><title>background-flotsam.complex</title><g id="Layer_2" data-name="Layer 2"><g id="Layer_10" data-name="Layer 10"><g id="background-flotsam"><rect class="cls-1" x="222.68" y="45.9" width="8.89" height="8.89" transform="translate(-3.64 20.87) rotate(-5.22)"/><rect class="cls-1" x="336.83" y="199.47" width="8.89" height="8.89" transform="translate(93.68 -107.13) rotate(20.62)"/><rect class="cls-1" x="375.77" y="163.38" width="8.89" height="8.89" transform="translate(385.68 -247.74) rotate(66.94)"/><rect class="cls-1" x="312.38" y="140.89" width="8.89" height="8.89" transform="translate(398.31 -193.58) rotate(78.88)"/><rect class="cls-1" x="250.66" y="352.21" width="8.89" height="8.89" transform="translate(-31.39 24.69) rotate(-5.22)"/><rect class="cls-1" x="298.39" y="292.06" width="8.89" height="8.89" transform="translate(-105.36 410.51) rotate(-60)"/><rect class="cls-1" x="4.22" y="169.04" width="8.89" height="8.89" transform="translate(180.64 149.08) rotate(84.78)"/><rect class="cls-1" x="132.75" y="72.69" width="8.89" height="8.89" transform="translate(154.42 -79.32) rotate(66.94)"/><rect class="cls-1" x="128.74" y="16.11" width="8.89" height="8.89" transform="translate(61.4 -93.5) rotate(49.04)"/><rect class="cls-1" x="28.52" y="109.43" width="8.89" height="8.89" transform="translate(-10.22 3.47) rotate(-5.22)"/><rect class="cls-1" x="113.77" y="336.56" width="8.89" height="8.89" transform="translate(78.37 -17.7) rotate(12.78)"/><rect class="cls-1" x="40.24" y="190.59" width="6.01" height="6.01" transform="matrix(0.34, -0.94, 0.94, 0.34, -153.46, 168.03)"/><rect class="cls-1" x="22.73" y="280.65" width="6.01" height="6.01" transform="translate(-156.37 64.66) rotate(-34.56)"/><rect class="cls-1" x="166.25" y="333.83" width="6.01" height="6.01" transform="translate(-201.28 406.17) rotate(-73.92)"/><rect class="cls-1" x="206.42" y="326.86" width="6.01" height="6.01" transform="translate(-165.53 439.74) rotate(-73.92)"/><rect class="cls-1" x="61.86" y="52.87" width="6.01" height="6.01" transform="translate(-20.74 56.2) rotate(-40.96)"/><rect class="cls-1" x="100.34" y="97" width="6.01" height="6.01" transform="translate(-33.2 54.87) rotate(-25.77)"/><rect class="cls-1" x="134.2" y="44.33" width="6.01" height="6.01"/><rect class="cls-1" x="193.26" y="47.34" width="6.01" height="6.01"/><rect class="cls-1" x="238.15" y="39.26" width="6.01" height="6.01" transform="translate(157.18 -187.71) rotate(60)"/><rect class="cls-1" x="296.68" y="46.27" width="6.01" height="6.01"/><rect class="cls-1" x="196.29" y="15.33" width="6.01" height="6.01" transform="translate(108.69 -160.11) rotate(57.82)"/><rect class="cls-1" x="135.41" y="325.25" width="6.01" height="6.01" transform="translate(342.55 36.3) rotate(57.82)"/><rect class="cls-1" x="35.19" y="232.86" width="6.01" height="6.01"/><rect class="cls-1" x="16.93" y="222.31" width="6.01" height="6.01" transform="translate(-109.99 40.16) rotate(-30)"/><rect class="cls-1" x="63.88" y="160.72" width="6.01" height="6.01" transform="translate(74.11 -12.99) rotate(24.56)"/><rect class="cls-1" x="84.24" y="267.42" width="6.01" height="6.01" transform="translate(-98.96 55.79) rotate(-23.06)"/><rect class="cls-1" x="66.82" y="203.84" width="6.01" height="6.01" transform="translate(-18.53 7.21) rotate(-5.22)"/><rect class="cls-1" x="53.43" y="325.77" width="6.01" height="6.01" transform="translate(-244.98 185.85) rotate(-54.89)"/><rect class="cls-1" x="184.11" y="367.24" width="6.01" height="6.01" transform="translate(-223.38 310.38) rotate(-54.89)"/><rect class="cls-1" x="172.35" y="383.97" width="6.01" height="6.01" transform="matrix(0.1, -1, 1, 0.1, -226.64, 524.48)"/><rect class="cls-1" x="261.31" y="367.24" width="6.01" height="6.01" transform="translate(-134.67 151.71) rotate(-25.77)"/><rect class="cls-1" x="277.78" y="293.5" width="6.01" height="6.01" transform="translate(-127.42 285.39) rotate(-45)"/><rect class="cls-1" x="347.05" y="254.5" width="6.01" height="6.01" transform="translate(-31.64 49.76) rotate(-7.78)"/><rect class="cls-1" x="339.89" y="69.48" width="6.01" height="6.01" transform="translate(5.76 168.25) rotate(-27.79)"/><rect class="cls-1" x="258.9" y="60.03" width="6.01" height="6.01" transform="translate(0.82 129.4) rotate(-27.79)"/><rect class="cls-1" x="352.05" y="214.13" width="6.01" height="6.01" transform="translate(-26.13 50.07) rotate(-7.78)"/><rect class="cls-1" x="343.27" y="293.5" width="6.01" height="6.01" transform="translate(108.34 -92.35) rotate(17.97)"/><rect class="cls-1" x="316.51" y="115" width="6.01" height="6.01" transform="translate(177.02 -191.37) rotate(45)"/><rect class="cls-1" x="47.6" y="85.2" width="6.01" height="6.01" transform="translate(-42.6 47.55) rotate(-36.59)"/><circle class="cls-1" cx="66.88" cy="87.58" r="3.61"/><circle class="cls-1" cx="19.94" cy="163.72" r="3.61"/><circle class="cls-1" cx="56.43" cy="204.25" r="3.61"/><circle class="cls-1" cx="58.05" cy="154.06" r="3.61"/><circle class="cls-1" cx="87.24" cy="318.93" r="3.61"/><circle class="cls-1" cx="96.43" cy="291.99" r="3.61"/><circle class="cls-1" cx="74.21" cy="245.79" r="3.61"/><circle class="cls-1" cx="144.69" cy="373.85" r="3.61"/><circle class="cls-1" cx="335.69" cy="315.47" r="3.61"/><circle class="cls-1" cx="118.22" cy="311.87" r="3.61"/><circle class="cls-1" cx="219.55" cy="328.78" r="3.61"/><circle class="cls-1" cx="223.16" cy="387.32" r="3.61"/><circle class="cls-1" cx="270.23" cy="322.53" r="3.61"/><circle class="cls-1" cx="321.03" cy="264.98" r="3.61"/><circle class="cls-1" cx="376.61" cy="254.9" r="3.61"/><circle class="cls-1" cx="337.85" cy="213.93" r="3.61"/><circle class="cls-1" cx="346.05" cy="98.49" r="3.61"/><circle class="cls-1" cx="351.72" cy="146.85" r="3.61"/><circle class="cls-1" cx="299.69" cy="119.1" r="3.61"/><circle class="cls-1" cx="329.85" cy="73.1" r="3.61"/><circle class="cls-1" cx="252.17" cy="80.58" r="3.61"/><circle class="cls-1" cx="270.23" cy="39.57" r="3.61"/><circle class="cls-1" cx="380.21" cy="190.22" r="3.61"/><circle class="cls-1" cx="216.84" cy="5.33" r="3.61"/><circle class="cls-1" cx="190.24" cy="66.32" r="3.61"/><circle class="cls-1" cx="157.4" cy="19.5" r="3.61"/><circle class="cls-1" cx="97.29" cy="72.49" r="3.61"/><rect class="cls-1" x="45" y="225.96" width="3.23" height="3.23" transform="translate(-126.48 72.65) rotate(-36.59)"/><rect class="cls-1" x="8.14" y="183.83" width="3.23" height="3.23" transform="translate(-108.62 42.37) rotate(-36.59)"/><rect class="cls-1" x="16.38" y="122.7" width="3.23" height="3.23" transform="matrix(0.94, 0.34, -0.34, 0.94, 43.6, 1.34)"/><rect class="cls-1" x="58.42" y="94.54" width="3.23" height="3.23" transform="translate(36.5 -14.73) rotate(20)"/><rect class="cls-1" x="91.44" y="40.65" width="3.23" height="3.23" transform="translate(90.67 -59.92) rotate(64.23)"/><rect class="cls-1" x="155.78" y="54.26" width="3.23" height="3.23" transform="translate(139.29 -110.16) rotate(64.23)"/><rect class="cls-1" x="124.07" y="73.16" width="3.23" height="3.23" transform="translate(84.05 -65.42) rotate(42.71)"/><rect class="cls-1" x="14.72" y="214.65" width="3.23" height="3.23" transform="translate(208.92 116.52) rotate(66.94)"/><rect class="cls-1" x="181.63" y="40.65" width="3.23" height="3.23" transform="translate(77.26 -113.09) rotate(42.71)"/><rect class="cls-1" x="294.64" y="90.26" width="3.23" height="3.23" transform="translate(275.59 -217.61) rotate(68.95)"/><rect class="cls-1" x="272.22" y="25.81" width="3.23" height="3.23" transform="translate(201.08 -237.99) rotate(68.95)"/><rect class="cls-1" x="221.42" y="70.87" width="3.23" height="3.23" transform="translate(210.58 -161.7) rotate(68.95)"/><rect class="cls-1" x="38.32" y="306.87" width="3.23" height="3.23" transform="translate(219.83 54.72) rotate(42.71)"/><rect class="cls-1" x="99.79" y="350.17" width="3.23" height="3.23" transform="translate(442.51 218.79) rotate(84.78)"/><rect class="cls-1" x="54.82" y="281.92" width="3.23" height="3.23" transform="translate(339.97 227.11) rotate(90)"/><rect class="cls-1" x="183.89" y="351.78" width="3.23" height="3.23" transform="translate(538.9 167.9) rotate(90)"/><rect class="cls-1" x="265.01" y="327.16" width="3.23" height="3.23" transform="translate(595.4 62.15) rotate(90)"/><rect class="cls-1" x="308.81" y="324.53" width="3.23" height="3.23" transform="translate(748.08 220.38) rotate(120)"/><rect class="cls-1" x="323.02" y="293.98" width="3.23" height="3.23" transform="translate(709.03 507.76) rotate(166.58)"/><rect class="cls-1" x="311.83" y="351.17" width="3.23" height="3.23" transform="translate(308.89 824.68) rotate(-137.83)"/><rect class="cls-1" x="325.33" y="232.34" width="3.23" height="3.23" transform="translate(622.86 506.11) rotate(-172.98)"/><rect class="cls-1" x="305.13" y="257.82" width="3.23" height="3.23" transform="translate(413.81 646.66) rotate(-145.68)"/><rect class="cls-1" x="350.1" y="174.54" width="3.23" height="3.23" transform="translate(652.56 429.61) rotate(-166.49)"/><rect class="cls-1" x="317.9" y="87.9" width="3.23" height="3.23" transform="translate(609.27 251.2) rotate(-166.49)"/><rect class="cls-1" x="339.66" y="166.21" width="3.23" height="3.23" transform="translate(633.9 410.73) rotate(-166.49)"/><rect class="cls-1" x="307.13" y="45.72" width="3.23" height="3.23" transform="translate(493.58 299.13) rotate(-135)"/><rect class="cls-1" x="139.46" y="349.84" width="3.23" height="3.23" transform="translate(438.99 585.3) rotate(150)"/><rect class="cls-1" x="242.45" y="312.09" width="3.23" height="3.23" transform="translate(612.28 463.35) rotate(150)"/><circle class="cls-1" cx="54.44" cy="308.48" r="1.94"/><circle class="cls-1" cx="63" cy="330.39" r="1.94"/><circle class="cls-1" cx="10.68" cy="219.47" r="1.94"/><circle class="cls-1" cx="63.18" cy="213.91" r="1.94"/><circle class="cls-1" cx="52.5" cy="122.38" r="1.94"/><circle class="cls-1" cx="93.06" cy="118" r="1.94"/><circle class="cls-1" cx="384.6" cy="197.66" r="1.94"/><circle class="cls-1" cx="257.78" cy="72.49" r="1.94"/><circle class="cls-1" cx="341.27" cy="326.14" r="1.94"/><circle class="cls-1" cx="262.31" cy="320.59" r="1.94"/><circle class="cls-1" cx="66.88" cy="262.06" r="1.94"/><circle class="cls-1" cx="81.7" cy="277.55" r="1.94"/><circle class="cls-1" cx="129.91" cy="304.6" r="1.94"/><circle class="cls-1" cx="211.37" cy="322.53" r="1.94"/><circle class="cls-1" cx="179.25" cy="328.78" r="1.94"/><circle class="cls-1" cx="120.16" cy="375.79" r="1.94"/><circle class="cls-1" cx="79.76" cy="351.46" r="1.94"/><circle class="cls-1" cx="99.47" cy="342.95" r="1.94"/><circle class="cls-1" cx="152.94" cy="381.77" r="1.94"/><circle class="cls-1" cx="211.37" cy="355.34" r="1.94"/><circle class="cls-1" cx="253.17" cy="373.85" r="1.94"/><circle class="cls-1" cx="288.64" cy="310.42" r="1.94"/><circle class="cls-1" cx="348.11" cy="312.36" r="1.94"/><circle class="cls-1" cx="283.42" cy="288.39" r="1.94"/><circle class="cls-1" cx="384.6" cy="244.11" r="1.94"/><circle class="cls-1" cx="375.61" cy="273.67" r="1.94"/><circle class="cls-1" cx="317.57" cy="257.5" r="1.94"/><circle class="cls-1" cx="323.06" cy="192.16" r="1.94"/><circle class="cls-1" cx="362.49" cy="123.29" r="1.94"/><circle class="cls-1" cx="389.84" cy="194.1" r="1.94"/><circle class="cls-1" cx="319.51" cy="134.04" r="1.94"/><circle class="cls-1" cx="346.05" cy="87.58" r="1.94"/><circle class="cls-1" cx="288.03" cy="93.13" r="1.94"/><circle class="cls-1" cx="296.26" cy="66.32" r="1.94"/><circle class="cls-1" cx="281.51" cy="25.51" r="1.94"/><circle class="cls-1" cx="231.46" cy="59.15" r="1.94"/><circle class="cls-1" cx="201.24" cy="7.27" r="1.94"/><circle class="cls-1" cx="183.25" cy="70.55" r="1.94"/><circle class="cls-1" cx="133.19" cy="86.86" r="1.94"/><circle class="cls-1" cx="163.87" cy="5.33" r="1.94"/><circle class="cls-1" cx="113.03" cy="100.01" r="1.94"/><circle class="cls-1" cx="132.36" cy="55.87" r="1.94"/><circle class="cls-1" cx="19.94" cy="252.71" r="1.94"/><circle class="cls-1" cx="48.56" cy="185.44" r="1.94"/><circle class="cls-1" cx="64.94" cy="247.73" r="1.94"/><circle class="cls-1" cx="32.97" cy="142.95" r="1.94"/><circle class="cls-1" cx="60.04" cy="61.09" r="1.94"/><circle class="cls-1" cx="101.41" cy="47.34" r="1.94"/><circle class="cls-1" cx="91.12" cy="124.32" r="1.94"/><circle class="cls-1" cx="288.64" cy="356.66" r="5.22"/><circle class="cls-1" cx="123.44" cy="30.74" r="5.22"/><circle class="cls-1" cx="61.66" cy="119.1" r="5.22"/><circle class="cls-1" cx="32.97" cy="254.9" r="5.22"/><circle class="cls-1" cx="10.68" cy="150.45" r="5.22"/><circle class="cls-1" cx="133.19" cy="313.71" r="5.22"/><circle class="cls-1" cx="265.01" cy="82.36" r="5.22"/><circle class="cls-1" cx="364.43" cy="109.18" r="5.22"/><circle class="cls-1" cx="343.08" cy="228.74" r="5.22"/><circle class="cls-1" cx="178.02" cy="61.09" r="5.22"/><circle class="cls-1" cx="249.89" cy="15.33" r="5.22"/><circle class="cls-2" cx="196.76" cy="196.76" r="196.76"/></g></g></g></svg>