<svg xmlns="http://www.w3.org/2000/svg" viewBox="0 0 393.52 393.52"><defs><style>.cls-1{fill:none;}.cls-2{fill:#96adea;}</style></defs><title>foreground-flotsam.complex</title><g id="Layer_2" data-name="Layer 2"><g id="Layer_10" data-name="Layer 10"><g id="foreground-flotsam"><circle class="cls-1" cx="196.76" cy="196.76" r="196.76"/><rect class="cls-2" x="238.25" y="57.34" width="17.95" height="17.95" transform="translate(2.92 -10.06) rotate(2.35)"/><rect class="cls-2" x="352.56" y="112.67" width="17.95" height="17.95" transform="translate(5.28 -14.69) rotate(2.35)"/><rect class="cls-2" x="294.24" y="309.96" width="17.95" height="17.95" transform="translate(13.31 -12.14) rotate(2.35)"/><rect class="cls-2" x="7.23" y="209.78" width="17.95" height="17.95" transform="translate(8.97 -0.48) rotate(2.35)"/><circle class="cls-2" cx="78.56" cy="60.67" r="8.56"/><circle class="cls-2" cx="123.55" cy="85.58" r="8.56"/><circle class="cls-2" cx="213.08" cy="11.69" r="8.56"/><circle class="cls-2" cx="252.17" cy="318.65" r="8.56"/><circle class="cls-2" cx="382.5" cy="210.19" r="8.56"/><circle class="cls-2" cx="208.95" cy="370.24" r="8.56"/><circle class="cls-2" cx="43.25" cy="285.16" r="8.56"/><circle class="cls-2" cx="129.59" cy="311.83" r="8.56"/><circle class="cls-2" cx="36.45" cy="161.49" r="8.56"/><circle class="cls-2" cx="56.11" cy="125.93" r="13.39"/><circle class="cls-2" cx="312.17" cy="121.65" r="13.39"/><circle class="cls-2" cx="293.85" cy="52.11" r="13.39"/><circle class="cls-2" cx="329.85" cy="277.55" r="13.39"/><circle class="cls-2" cx="74.21" cy="332.33" r="13.39"/><rect class="cls-2" x="43.03" y="221.59" width="25.3" height="25.3" transform="translate(91.51 -3.85) rotate(21.93)"/><rect class="cls-2" x="145.58" y="344.25" width="25.3" height="25.3" transform="matrix(-0.61, 0.8, -0.8, -0.61, 538.12, 446.92)"/><rect class="cls-2" x="327.54" y="154.01" width="25.3" height="25.3" transform="matrix(-0.61, 0.8, -0.8, -0.61, 678.73, -3.3)"/><rect class="cls-2" x="143.76" y="25.67" width="25.3" height="25.3" transform="translate(281.57 -63.01) rotate(127.24)"/></g></g></g></svg>