<svg xmlns="http://www.w3.org/2000/svg" viewBox="0 0 393.52 393.52"><defs><style>.cls-1{fill:#b0c6ed;}.cls-2{fill:none;}</style></defs><title>middleground-flotsam.complex</title><g id="Layer_2" data-name="Layer 2"><g id="Layer_10" data-name="Layer 10"><g id="middleground-flotsam"><rect class="cls-1" x="367.18" y="219.28" width="12.52" height="12.52" transform="translate(9.54 -15.1) rotate(2.35)"/><rect class="cls-1" x="305.22" y="336.26" width="12.52" height="12.52" transform="translate(14.28 -12.46) rotate(2.35)"/><rect class="cls-1" x="330.51" y="116.67" width="12.52" height="12.52" transform="translate(72.05 -118.83) rotate(22.35)"/><rect class="cls-1" x="67.22" y="143.66" width="12.52" height="12.52" transform="translate(-93.12 160.87) rotate(-67.65)"/><rect class="cls-1" x="116.8" y="344.67" width="12.52" height="12.52" transform="translate(-76.9 37.38) rotate(-13.2)"/><rect class="cls-1" x="188.02" y="35.3" width="12.52" height="12.52" transform="translate(71.35 -114.52) rotate(39.7)"/><rect class="cls-1" x="84.11" y="285.59" width="12.52" height="12.52" transform="translate(207.27 9.58) rotate(39.7)"/><rect class="cls-1" x="110.33" y="66.32" width="8.46" height="8.46" transform="matrix(0.87, 0.5, -0.5, 0.87, 50.62, -47.83)"/><rect class="cls-1" x="16.25" y="201.89" width="8.46" height="8.46" transform="translate(105.8 17.37) rotate(30)"/><rect class="cls-1" x="118.83" y="298.48" width="8.46" height="8.46" transform="translate(167.84 -20.97) rotate(30)"/><rect class="cls-1" x="91.92" y="332.52" width="8.46" height="8.46" transform="translate(266.28 30.64) rotate(45)"/><rect class="cls-1" x="144.37" y="362.38" width="8.46" height="8.46" transform="translate(544.18 368.59) rotate(112.35)"/><rect class="cls-1" x="21.42" y="262.02" width="8.46" height="8.46" transform="translate(258.11 133.93) rotate(65.85)"/><rect class="cls-1" x="26.22" y="113.62" width="8.46" height="8.46" transform="translate(125.53 41.86) rotate(65.85)"/><rect class="cls-1" x="217.77" y="64.09" width="8.46" height="8.46" transform="matrix(-0.26, 0.97, -0.97, -0.26, 344.76, -128.87)"/><rect class="cls-1" x="314.21" y="60.97" width="8.46" height="8.46" transform="translate(441.51 -235.65) rotate(100.68)"/><rect class="cls-1" x="192.53" y="333.6" width="8.46" height="8.46" transform="matrix(-0.95, 0.32, -0.32, -0.95, 492.14, 593.94)"/><rect class="cls-1" x="260.92" y="303.85" width="8.46" height="8.46" transform="translate(667.45 366.1) rotate(138.92)"/><rect class="cls-1" x="260.92" y="371.83" width="8.46" height="8.46" transform="translate(660.93 610.76) rotate(155.85)"/><rect class="cls-1" x="328.5" y="244.94" width="8.46" height="8.46" transform="translate(738.28 340.43) rotate(155.85)"/><rect class="cls-1" x="294.82" y="100.98" width="8.46" height="8.46" transform="translate(527.38 325.12) rotate(-155.46)"/><rect class="cls-1" x="281.52" y="23.17" width="8.46" height="8.46" transform="translate(472.68 -190.45) rotate(125.15)"/><rect class="cls-1" x="50.68" y="62.97" width="8.46" height="8.46" transform="translate(71.48 -17.99) rotate(50.26)"/><circle class="cls-1" cx="227.08" cy="7.89" r="5.08"/><circle class="cls-1" cx="253.92" cy="80.53" r="5.08"/><circle class="cls-1" cx="358.15" cy="93.4" r="5.08"/><circle class="cls-1" cx="329.76" cy="160.16" r="5.08"/><circle class="cls-1" cx="367.78" cy="110.29" r="5.08"/><circle class="cls-1" cx="324.69" cy="218.78" r="5.08"/><circle class="cls-1" cx="299.05" cy="291.85" r="5.08"/><circle class="cls-1" cx="374.85" cy="191.15" r="5.08"/><circle class="cls-1" cx="288.96" cy="357.9" r="5.08"/><circle class="cls-1" cx="342.23" cy="299.21" r="5.08"/><circle class="cls-1" cx="244.73" cy="342.52" r="5.08"/><circle class="cls-1" cx="128.14" cy="376.06" r="5.08"/><circle class="cls-1" cx="177.78" cy="334.01" r="5.08"/><circle class="cls-1" cx="70.99" cy="280.77" r="5.08"/><circle class="cls-1" cx="6.24" cy="215.53" r="5.08"/><circle class="cls-1" cx="50.6" cy="176.92" r="5.08"/><circle class="cls-1" cx="28.17" cy="135.93" r="5.08"/><circle class="cls-1" cx="98.9" cy="110.69" r="5.08"/><circle class="cls-1" cx="78.56" cy="87.86" r="5.08"/><circle class="cls-1" cx="137.77" cy="14.51" r="5.08"/><circle class="cls-1" cx="165.23" cy="71.55" r="5.08"/><circle class="cls-1" cx="283.16" cy="100.89" r="5.08"/><rect class="cls-1" x="73.79" y="235.93" width="4.55" height="4.55" transform="translate(-90.79 51.96) rotate(-24.15)"/><rect class="cls-1" x="34.3" y="157.89" width="4.55" height="4.55" transform="translate(-62.32 28.97) rotate(-24.15)"/><rect class="cls-1" x="140.35" y="55.66" width="4.55" height="4.55" transform="translate(-11.22 63.41) rotate(-24.15)"/><rect class="cls-1" x="169.77" y="3.54" width="4.55" height="4.55" transform="translate(1.23 27.16) rotate(-9.06)"/><rect class="cls-1" x="317.33" y="162.39" width="4.55" height="4.55" transform="translate(-21.94 52.37) rotate(-9.06)"/><rect class="cls-1" x="325.02" y="77.18" width="4.55" height="4.55" transform="translate(95.14 -164.55) rotate(32.78)"/><rect class="cls-1" x="368.65" y="157.89" width="4.55" height="4.55" transform="translate(129.77 -164) rotate(30)"/><rect class="cls-1" x="237.38" y="50.82" width="4.55" height="4.55" transform="translate(89.18 -140.84) rotate(39.7)"/><rect class="cls-1" x="360.42" y="296.93" width="4.55" height="4.55" transform="translate(198.2 -141.26) rotate(30)"/><rect class="cls-1" x="179.11" y="321.28" width="4.55" height="4.55" transform="translate(520.87 174.08) rotate(95.51)"/><rect class="cls-1" x="209.4" y="378.87" width="4.55" height="4.55" transform="translate(289.02 810.2) rotate(-161.17)"/><rect class="cls-1" x="48.33" y="319.63" width="4.55" height="4.55" transform="translate(-5.39 642.93) rotate(-161.17)"/><rect class="cls-1" x="327.49" y="300.43" width="4.55" height="4.55" transform="translate(544.19 695.65) rotate(-161.17)"/><circle class="cls-1" cx="20.48" cy="184.73" r="2.73"/><circle class="cls-1" cx="62.38" cy="192.14" r="2.73"/><circle class="cls-1" cx="55.68" cy="162.89" r="2.73"/><circle class="cls-1" cx="17.75" cy="125.66" r="2.73"/><circle class="cls-1" cx="43.25" cy="215.53" r="2.73"/><circle class="cls-1" cx="106.71" cy="315.97" r="2.73"/><circle class="cls-1" cx="158.35" cy="337.83" r="2.73"/><circle class="cls-1" cx="91.09" cy="357.9" r="2.73"/><circle class="cls-1" cx="62.38" cy="329.85" r="2.73"/><circle class="cls-1" cx="181.39" cy="360.63" r="2.73"/><circle class="cls-1" cx="139.94" cy="378.96" r="2.73"/><circle class="cls-1" cx="296.77" cy="336.75" r="2.73"/><circle class="cls-1" cx="380.78" cy="204.12" r="2.73"/><circle class="cls-1" cx="321" cy="151.27" r="2.73"/><circle class="cls-1" cx="353.07" cy="105.61" r="2.73"/><circle class="cls-1" cx="334.35" cy="139.05" r="2.73"/><circle class="cls-1" cx="339.5" cy="313.24" r="2.73"/><circle class="cls-1" cx="267.88" cy="27.4" r="2.73"/><circle class="cls-1" cx="302.59" cy="57.94" r="2.73"/><circle class="cls-1" cx="95.22" cy="34.75" r="2.73"/><circle class="cls-1" cx="177.78" cy="34.75" r="2.73"/><circle class="cls-1" cx="211.68" cy="26.07" r="2.73"/><circle class="cls-1" cx="36.57" cy="247.19" r="2.73"/><circle class="cls-1" cx="7.35" cy="196.76" r="7.35"/><circle class="cls-1" cx="50.6" cy="108.24" r="7.35"/><circle class="cls-1" cx="272.5" cy="70.55" r="7.35"/><circle class="cls-1" cx="130.41" cy="27.4" r="7.35"/><circle class="cls-1" cx="304.12" cy="274.69" r="7.35"/><circle class="cls-1" cx="360.42" cy="196.76" r="7.35"/><circle class="cls-1" cx="63.64" cy="299.21" r="7.35"/><circle class="cls-1" cx="57.96" cy="259.99" r="7.35"/><circle class="cls-1" cx="229.15" cy="355.17" r="7.35"/><circle class="cls-2" cx="196.76" cy="196.76" r="196.76"/></g></g></g></svg>