<svg xmlns="http://www.w3.org/2000/svg" viewBox="0 0 265.81 254.08"><defs><style>.cls-1{fill:#a5a5a5;}</style></defs><title>difference-energy.complex</title><g id="Layer_2" data-name="Layer 2"><g id="Layer_9" data-name="Layer 9"><g id="difference-energy"><path class="cls-1" d="M161,227.77,105.68,196c-6-3.47-19.68,3.85-19.81,3.92a70.39,70.39,0,0,0-13.31,9.28l-.25.25c-.3.32-.53.61-.76.89s-.24.31-.36.45a7,7,0,0,0,.27,9.83,6.87,6.87,0,0,0,1.3,1l52.65,31.15a10.3,10.3,0,0,0,10.3,0l.4-.23.32-.33a61.93,61.93,0,0,1,11.27-9c5.61-3.52,13.05-7.17,13.13-7.2l.19-.1A4.66,4.66,0,0,0,163.2,233a4.61,4.61,0,0,0-.45-3.52A4.54,4.54,0,0,0,161,227.77Zm-17,9.53a69.49,69.49,0,0,0-12.13,9.63,3.43,3.43,0,0,1-3.06-.15L76.19,215.6l0-.18h0c.28-.3.49-.57.71-.84s.21-.27.34-.41a63.54,63.54,0,0,1,11.86-8.25c5.58-3,11.71-4.46,13.19-4l51.74,29.73C151.27,233.12,147.41,235.21,144.06,237.3Z"/><polygon class="cls-1" points="54.71 67.85 70.47 76.6 72.47 73 50.48 60.78 50.68 72.92 35.15 63.63 33.03 67.17 54.92 80.26 54.71 67.85"/><polygon class="cls-1" points="265.81 171.35 243.82 159.12 244.01 171.27 228.47 161.98 226.35 165.52 248.24 178.6 248.05 166.18 263.81 174.95 265.81 171.35"/><polygon class="cls-1" points="57.47 149.69 49.22 140.41 66.89 136.77 66.06 132.74 41.41 137.81 49.48 146.89 31.65 149.97 32.35 154.03 57.47 149.69"/><polygon class="cls-1" points="225.15 103.23 250.09 97.87 241.49 88.93 258.99 84.6 258 80.6 233.57 86.65 241.99 95.39 224.29 99.2 225.15 103.23"/><polygon class="cls-1" points="67.05 11.88 77.81 26.35 81.11 23.89 66.09 3.71 61.27 14.86 50.92 0 47.54 2.35 62.12 23.27 67.05 11.88"/><polygon class="cls-1" points="151.27 46.17 155.12 47.64 164.06 24.11 152.06 26.05 159.01 9.34 155.21 7.76 145.41 31.3 157.68 29.32 151.27 46.17"/><polygon class="cls-1" points="227.93 223.69 217.58 208.84 214.2 211.19 228.78 232.12 233.7 220.72 244.46 235.19 247.76 232.73 232.74 212.54 227.93 223.69"/><rect class="cls-1" x="113.06" y="16.39" width="4.12" height="20.85" transform="translate(-2.33 40.13) rotate(-19.58)"/><rect class="cls-1" x="64.67" y="36.73" width="4.12" height="20.8" transform="translate(-12.36 67.6) rotate(-49.74)"/><rect class="cls-1" x="230.23" y="180.71" width="4.12" height="20.81" transform="translate(-63.65 244.99) rotate(-49.76)"/><rect class="cls-1" x="178.85" y="61.53" width="19.61" height="4.12" transform="translate(22.72 173.59) rotate(-52.17)"/><rect class="cls-1" x="59.57" y="92.23" width="4.12" height="29.22" transform="translate(-51.85 155.18) rotate(-83.09)"/><rect class="cls-1" x="235.89" y="117.84" width="4.12" height="28.48" transform="translate(70.22 346.4) rotate(-80.99)"/><path class="cls-1" d="M209.32,102l-118-68.34a3.64,3.64,0,0,0-2-.53,4.17,4.17,0,0,0-4.16,4.16V127.8a6.18,6.18,0,0,0,3.1,5.47l.08,0-1.87,1.08a10.62,10.62,0,0,0-5.3,9.17v14.49c0,.21,0,.43,0,.64L69.53,152A10.58,10.58,0,0,0,59,152L46.41,159.2a10.62,10.62,0,0,0-5.31,9.16v14.49a10.59,10.59,0,0,0,.28,2.32c-.13-.09-.26-.19-.4-.27l-12.55-7.25a10.58,10.58,0,0,0-10.58,0L5.3,184.9A10.61,10.61,0,0,0,0,194.06v14.49a10.61,10.61,0,0,0,5.3,9.16L17.85,225a10.63,10.63,0,0,0,10.58,0L41,217.71a10.64,10.64,0,0,0,5.3-9.17V194.06a10.52,10.52,0,0,0-.28-2.32c.13.09.26.19.4.27L59,199.26a10.65,10.65,0,0,0,10.59,0L82.08,192a10.59,10.59,0,0,0,5.3-9.16V168.36c0-.22,0-.43,0-.65L99,174.45a10.63,10.63,0,0,0,10.58,0l12.56-7.23a10.6,10.6,0,0,0,5.3-9.17v-2.26l10.91,6.27,0,0,.76.44c.77.56,2.47,2.16,3.8,5.84l-.37-.22a10.29,10.29,0,0,0-10.54,0l-10.36,6.24a10.29,10.29,0,0,0,0,17.83l37.06,21.81a10.22,10.22,0,0,0,10.43,0L180,207.78a10.29,10.29,0,0,0,.05-17.95l-8.27-4.78a42,42,0,0,0-.85-4.25L204.35,200a5.12,5.12,0,0,0,2.43.66h.07a5.05,5.05,0,0,0,5-5v-89A5.16,5.16,0,0,0,209.32,102Zm-188,81.62a3.74,3.74,0,0,1,3.72,0l11.6,6.71-12.17,6.6a7.88,7.88,0,0,0-1,.56,9,9,0,0,0-1-.71l-11.8-7ZM8.73,211.76a3.74,3.74,0,0,1-1.87-3.22v-13l12,7.12a1.77,1.77,0,0,1,.88,1.37c0,.09,0,.17,0,.26s0,.23,0,.34v13.51Zm28.82,0-10.88,6.29v-13.8c0-.09,0-.17,0-.26a1.08,1.08,0,0,1,.65-.86l12.1-6.56v12A3.71,3.71,0,0,1,37.55,211.76Zm23.32-19.32-11-6.38A3.71,3.71,0,0,1,48,182.84v-13L60,177a1.8,1.8,0,0,1,.9,1.57Zm3.59-20.7a7.09,7.09,0,0,0-1-.7l-11.77-7,10.71-6.19a3.74,3.74,0,0,1,3.72,0l11.55,6.68-12.12,6.57A9.22,9.22,0,0,0,64.46,171.74Zm16.06,11.1a3.72,3.72,0,0,1-1.87,3.22l-10.91,6.31V178.54s0,0,0-.07v0a1.12,1.12,0,0,1,.67-1.06l12.11-6.55ZM101,167.66l-11.07-6.4A3.71,3.71,0,0,1,88,158.05v-13l12,7.11a1.81,1.81,0,0,1,.88,1.38c0,.1,0,.2,0,.3s0,.23,0,.34ZM104.59,147a8,8,0,0,0-1.06-.74l-11.78-7,10.71-6.18a3.74,3.74,0,0,1,3.72,0l11.61,6.71-12.2,6.62A8.78,8.78,0,0,0,104.59,147Zm16,11.07a3.72,3.72,0,0,1-1.86,3.22l-10.89,6.27v-13.8c0-.08,0-.15,0-.23a1.13,1.13,0,0,1,.65-.85l12.12-6.56Zm19.33-29.24v13.5l-11.08-6.4a3.74,3.74,0,0,1-1.87-3.22v-13l12,7.12a1.78,1.78,0,0,1,.88,1.38c0,.09,0,.19,0,.28S139.91,128.69,139.92,128.81Zm25.55,64a3.42,3.42,0,0,0,6.82.43l4.4,2.53a3.44,3.44,0,0,1,1.32,1.33,3.39,3.39,0,0,1,.3,2.61,3.43,3.43,0,0,1-1.66,2.08l-11,6.33a3.43,3.43,0,0,1-3.49,0l-37.09-21.83a3.37,3.37,0,0,1-1.27-1.27,3.46,3.46,0,0,1,1.33-4.72l10.4-6.26a3.45,3.45,0,0,1,3.55,0l5.39,3.12a.75.75,0,0,1,.13.06c.08,1.12.13,2.31.13,3.61a3.44,3.44,0,0,0,6.87,0,48.32,48.32,0,0,0-1.33-11.94l8.57,4.91.2.1.43.25C160.69,175,165.47,179.16,165.47,192.83Zm39.55-.37L163.15,168.4a7,7,0,0,0-.89-.51l-34.81-20v-4.32c0-.18,0-.36,0-.54L138,149.11a10.63,10.63,0,0,0,10.58,0l9.86-5.7v-8.06a3.74,3.74,0,0,1-.74.57l-10.88,6.28V128.37c0-.08,0-.16,0-.24a1.1,1.1,0,0,1,.65-.85l11-6v-3l-4.29-2.48-9.57,5.19a8.13,8.13,0,0,0-1,.55,9.8,9.8,0,0,0-1.05-.73l-11.77-7,10-5.79-6.86-4-8.45,4.88a10.61,10.61,0,0,0-5.3,9.16V132.7c0,.18,0,.36,0,.54l-10.54-6.08a10.6,10.6,0,0,0-10.59,0l-3.8,2.19L92,127.52V42l113,65.46Z"/></g></g></g></svg>