<svg xmlns="http://www.w3.org/2000/svg" viewBox="0 0 266.81 379.68"><defs><style>.cls-1{fill:#a5a5a5;}</style></defs><title>difference-hashing.complex</title><g id="Layer_2" data-name="Layer 2"><g id="Layer_9" data-name="Layer 9"><g id="difference-hashing"><g id="Layer_1-2" data-name="Layer 1"><path class="cls-1" d="M153.81,109.51,147,88.25,100.27,61.33c-7-4-9.49-11-9.49-17.71V7.92c0-6.74,4.26-9.77,9.49-6.75L207.26,63c7.88,4.54,9.48,8.71,9.48,17.71v35.69c0,6.74-4.25,9.78-9.48,6.76l-46.78-27ZM100.27,7.09c-2.74-1.55-4.87,0-4.87,3.47V42.82c0,6,2.35,11.09,7.29,14l47,27.15,4,12.36,3.89-7.83,49.64,28.67c2.75,1.55,4.87,0,4.87-3.47V79.46c0-5.35-2.18-9-4.87-10.6Z"/><path class="cls-1" d="M118.1,42.16c0,.67-.25.85-.76.55L114.43,41c-.5-.29-.75-.11-.75.53v3.26c0,.68-.24.88-.74.6l-1.37-.84a1.51,1.51,0,0,1-.71-1.45V39.88a1.54,1.54,0,0,0-.8-1.37l-.25-.14c-.47-.27-.71-.09-.71.55v3.26c0,.68-.26.88-.77.59l-1.57-.87a1.54,1.54,0,0,1-.54-.62,1.69,1.69,0,0,1-.25-.87V37.14a1.56,1.56,0,0,0-.8-1.38l-2.4-1.37a1.48,1.48,0,0,1-.69-1.37V31.11q0-1,.69-.6l2.46,1.37c.49.28.74.11.74-.54V31a1.51,1.51,0,0,0-.74-1.38l-2.46-1.37a1.53,1.53,0,0,1-.69-1.37V25.08q0-1,.69-.63l2.48,1.38c.48.27.72.09.72-.55V21.76c0-.67.26-.84.79-.53l1.38.81a1.54,1.54,0,0,1,.77,1.44V27a1.5,1.5,0,0,0,.77,1.37l.24.14c.5.28.74.1.74-.54V24.51c0-.67.24-.86.72-.58l1.37.84a1.51,1.51,0,0,1,.74,1.37v3.54a1.56,1.56,0,0,0,.8,1.38l2.85,1.64a1.59,1.59,0,0,1,.77,1.49V36c0,.69-.25.88-.77.59l-2.88-1.66c-.51-.3-.77-.13-.77.52v.36a1.52,1.52,0,0,0,.77,1.37l2.88,1.66a1.56,1.56,0,0,1,.77,1.44Zm-7.33-8v-.36a1.52,1.52,0,0,0-.79-1.37l-.25-.14c-.48-.28-.71-.09-.71.55v.35a1.5,1.5,0,0,0,.76,1.38l.25.13C110.53,35,110.77,34.79,110.77,34.15Z"/><path class="cls-1" d="M133.41,64.09c0,.68-.25.88-.77.59l-2.32-1.38a1.45,1.45,0,0,1-.53-.64,2.08,2.08,0,0,1-.24-.84v-9.7a1.77,1.77,0,0,0-.23-.87,1.53,1.53,0,0,0-.58-.63l-3-1.72c-.5-.29-.75-.09-.75.61v9.73a.7.7,0,0,1-.23.56.42.42,0,0,1-.54,0L122,58.43a1.55,1.55,0,0,1-.78-1.43V30.52c0-.67.26-.85.77-.55l2.28,1.37a1.56,1.56,0,0,1,.77,1.45v10a1.53,1.53,0,0,0,.75,1.37l3,1.72q.81.47.81-.54v-10a.65.65,0,0,1,.23-.56.45.45,0,0,1,.54,0l2.32,1.37a1.54,1.54,0,0,1,.77,1.44Z"/><path class="cls-1" d="M148.24,67.05a4.66,4.66,0,0,1-1.59,4,3.36,3.36,0,0,1-3.86-.17l-.87-.49A10.37,10.37,0,0,1,138,65.79a13.41,13.41,0,0,1-1.5-5.78v-.82c0-.64.25-.82.74-.54L139.67,60a1.4,1.4,0,0,1,.52.61,1.67,1.67,0,0,1,.22.78v.43a6.71,6.71,0,0,0,.5,2.38,3.81,3.81,0,0,0,1.55,2.12l.3.18a1,1,0,0,0,1.33-.13l0,0a3.13,3.13,0,0,0,.51-2V61.53a5.32,5.32,0,0,0-.58-2.41,3.55,3.55,0,0,0-1.37-1.62l-1.06-.61a1.53,1.53,0,0,1-.71-1.45V52.88c0-.62.24-.79.71-.5l1.06.6a.91.91,0,0,0,1.28-.13h0a2.74,2.74,0,0,0,.49-1.8v-2a3.74,3.74,0,0,0-.5-1.82,3.34,3.34,0,0,0-1.21-1.37l-.61-.36a1,1,0,0,0-1.19,0,1.38,1.38,0,0,0-.5,1.25v1c0,.5-.24.61-.74.31l-2.15-1.25a1.54,1.54,0,0,1-.57-.59,1.68,1.68,0,0,1-.23-.79V44.35a3.9,3.9,0,0,1,1.51-3.45,3,3,0,0,1,3.39,0l1.31.75a9.51,9.51,0,0,1,3.36,3.81,10.74,10.74,0,0,1,1.48,5.09v2.33c0,2-.45,3.29-1.37,3.94-.2.15-.2.38,0,.68a10.31,10.31,0,0,1,1.8,6.46Z"/><path class="cls-1" d="M162.05,56.62a.64.64,0,0,1-.25.59.5.5,0,0,1-.55,0L156,54.16a.5.5,0,0,0-.55,0,.61.61,0,0,0-.25.55v4.85a1.54,1.54,0,0,0,.8,1.37l4,2.33a1.56,1.56,0,0,1,.55.62,1.65,1.65,0,0,1,.25.84v2.43a.7.7,0,0,1-.23.59.5.5,0,0,1-.57,0l-4.11-2.36c-.5-.29-.75-.1-.75.56V76.65c0,.68-.25.88-.77.59L152.14,76a1.57,1.57,0,0,1-.57-.63,2,2,0,0,1-.23-.87V47.93a.6.6,0,0,1,.25-.55.5.5,0,0,1,.55,0l9.1,5.26a1.55,1.55,0,0,1,.8,1.47Z"/><path class="cls-1" d="M175.8,83.75a4.79,4.79,0,0,1-1.19,3.62,2.62,2.62,0,0,1-3.32,0L169,86a8.65,8.65,0,0,1-3.22-3.46,10.22,10.22,0,0,1-1.38-4.85V75.55c0-.67.25-.86.75-.56l2.26,1.37a1.51,1.51,0,0,1,.74,1.37v.32a8.76,8.76,0,0,0,.28,2.55,3.38,3.38,0,0,0,1.6,1.92c.67.39,1.19.35,1.55-.11a3.14,3.14,0,0,0,.53-2.08V75.19c0-2.57-.7-4.25-2.08-5-.83-.47-1.46-.22-1.88.77a.42.42,0,0,1-.5.33.37.37,0,0,1-.18-.08L165.39,70a1.65,1.65,0,0,1-.58-.65,1.69,1.69,0,0,1-.28-.85V55.53a.53.53,0,0,1,.25-.52.59.59,0,0,1,.55,0l9,5.21a1.45,1.45,0,0,1,.74,1.37v2.57c0,.64-.25.81-.74.53l-5.81-3.39c-.27-.16-.41-.07-.41.26V65.8c0,.39.11.57.33.55a4.94,4.94,0,0,1,2.75.51,9.37,9.37,0,0,1,3.33,3.46,9.52,9.52,0,0,1,1.37,4.93Z"/><path class="cls-1" d="M190.63,91.6a4.5,4.5,0,0,1-1.6,4,3.42,3.42,0,0,1-3.88-.15l-.6-.35a10.34,10.34,0,0,1-3.83-4.25A12.48,12.48,0,0,1,179.15,85v-.56q0-.9.72-.48l2.18,1.26a1.39,1.39,0,0,1,.72,1.38,5.92,5.92,0,0,0,.57,2.58,3.82,3.82,0,0,0,1.5,1.75,1.28,1.28,0,0,0,1.47,0,1.72,1.72,0,0,0,.6-1.51V84.28a.43.43,0,0,0-.19-.42.64.64,0,0,0-.36.17,2.73,2.73,0,0,1-2.91-.31,8.84,8.84,0,0,1-3.21-3.57,10.14,10.14,0,0,1-1.37-4.89V69.48a4.53,4.53,0,0,1,1.63-4,3.35,3.35,0,0,1,3.87.14L185,66a10.65,10.65,0,0,1,4,4.76,15.69,15.69,0,0,1,1.69,7Zm-3.71-13.17V74.66a6,6,0,0,0-.61-2.49,3.9,3.9,0,0,0-1.46-1.82l-.19-.11a1.07,1.07,0,0,0-1.37.15,2.43,2.43,0,0,0-.61,1.77V76.4a4.84,4.84,0,0,0,.61,2.29,3.9,3.9,0,0,0,1.37,1.64l.19.11a1.07,1.07,0,0,0,1.46-.19A2.58,2.58,0,0,0,186.92,78.43Z"/><path class="cls-1" d="M205.44,86.45a11,11,0,0,1-2.58,6.67,54,54,0,0,1-4.11,4.44q-.33.34-.33.45a.52.52,0,0,0,.3.49l5.8,3.35a1.46,1.46,0,0,1,.75,1.38v2.39c0,.64-.25.81-.75.53l-10-5.77a1.48,1.48,0,0,1-.74-1.37V96.58a1.53,1.53,0,0,1,.3-1.07l2.24-2.28a31.92,31.92,0,0,0,3.54-4.49,9.53,9.53,0,0,0,1.88-4.94v-.71a6.47,6.47,0,0,0-.59-2.84,3.72,3.72,0,0,0-1.45-1.73,1,1,0,0,0-1.38.17,3.06,3.06,0,0,0-.59,2.06v.5c0,.64-.24.82-.74.53l-2.28-1.37a1.65,1.65,0,0,1-.55-.62,1.7,1.7,0,0,1-.24-.79v-.94a4.61,4.61,0,0,1,1.6-4,3.37,3.37,0,0,1,3.87.16l.72.41A10.36,10.36,0,0,1,204,78.9a12.49,12.49,0,0,1,1.58,5.88Z"/><path class="cls-1" d="M151.71,186.82v-5.74l4.12,2.38v5.73Zm0-11.46v-5.78l4.12,2.37v5.74Zm0-11.47v-5.74l4.12,2.38v5.74Zm0-11.46v-5.74l4.12,2.38v5.73Zm0-11.46v-5.72l4.12,2.38v5.74Zm0-11.47v-5.74l4.12,2.38v5.74Zm0-11.46V112.3l4.12,2.38v5.73Z"/><path class="cls-1" d="M162,353.37l-55.35-31.8c-6-3.48-19.68,3.85-19.81,3.92a69.93,69.93,0,0,0-13.31,9.28l-.25.25c-.3.32-.53.61-.76.89a5.67,5.67,0,0,1-.36.44,7,7,0,0,0,.27,9.83,6.11,6.11,0,0,0,1.3,1l52.65,31.16a10.36,10.36,0,0,0,10.3,0l.4-.23.32-.33a62,62,0,0,1,11.27-9c5.61-3.51,13.05-7.16,13.13-7.2l.19-.1a4.63,4.63,0,0,0,1.73-6.33A4.68,4.68,0,0,0,162,353.37Zm-17,9.54a69,69,0,0,0-12.13,9.63,3.43,3.43,0,0,1-3.06-.16L77.19,341.21l0-.18h0c.28-.3.49-.57.71-.84s.21-.27.34-.41a63.07,63.07,0,0,1,11.86-8.25c5.58-3,11.71-4.46,13.19-4l51.74,29.73C152.27,358.73,148.41,360.82,145.06,362.91Z"/><polygon class="cls-1" points="55.71 193.45 71.47 202.21 73.47 198.61 51.48 186.39 51.68 198.53 36.15 189.24 34.03 192.77 55.92 205.86 55.71 193.45"/><polygon class="cls-1" points="266.81 296.96 244.82 284.72 245.01 296.88 229.47 287.59 227.35 291.12 249.24 304.21 249.05 291.79 264.81 300.56 266.81 296.96"/><polygon class="cls-1" points="58.47 275.3 50.22 266.01 67.89 262.38 67.06 258.34 42.41 263.42 50.48 272.5 32.65 275.57 33.35 279.63 58.47 275.3"/><polygon class="cls-1" points="226.15 228.84 251.09 223.47 242.49 214.54 259.99 210.21 259 206.21 234.57 212.25 242.99 221 225.29 224.81 226.15 228.84"/><polygon class="cls-1" points="68.05 137.49 78.81 151.96 82.11 149.5 67.09 129.31 62.27 140.46 51.92 125.61 48.54 127.96 63.12 148.88 68.05 137.49"/><polygon class="cls-1" points="228.93 349.3 218.58 334.44 215.2 336.8 229.78 357.72 234.7 346.33 245.46 360.79 248.76 358.33 233.74 338.15 228.93 349.3"/><rect class="cls-1" x="114.06" y="142" width="4.12" height="20.85" transform="translate(-44.37 47.73) rotate(-19.58)"/><rect class="cls-1" x="65.67" y="162.34" width="4.12" height="20.8" transform="translate(-107.86 112.79) rotate(-49.74)"/><rect class="cls-1" x="231.23" y="306.32" width="4.12" height="20.81" transform="translate(-159.18 290.23) rotate(-49.76)"/><rect class="cls-1" x="179.85" y="187.13" width="19.61" height="4.12" transform="translate(-76.1 222.94) rotate(-52.17)"/><rect class="cls-1" x="60.57" y="217.84" width="4.12" height="29.22" transform="translate(-175.66 266.68) rotate(-83.09)"/><rect class="cls-1" x="236.89" y="243.45" width="4.12" height="28.48" transform="translate(-52.99 453.32) rotate(-80.99)"/><path class="cls-1" d="M210.32,227.57l-118-68.34a3.81,3.81,0,0,0-2-.53,4.17,4.17,0,0,0-4.16,4.16v90.55a6.16,6.16,0,0,0,3.1,5.46l.08.06L87.48,260a10.6,10.6,0,0,0-5.3,9.17v14.48c0,.22,0,.43,0,.65l-11.69-6.75a10.58,10.58,0,0,0-10.58,0L47.41,284.8A10.63,10.63,0,0,0,42.1,294v14.48a10.45,10.45,0,0,0,.28,2.32l-.4-.27-12.55-7.24a10.58,10.58,0,0,0-10.58,0L6.3,310.5A10.62,10.62,0,0,0,1,319.67v14.48a10.64,10.64,0,0,0,5.3,9.17l12.55,7.24a10.56,10.56,0,0,0,10.58,0L42,343.32a10.66,10.66,0,0,0,5.3-9.17V319.66a10.59,10.59,0,0,0-.28-2.32l.4.28L60,324.86a10.58,10.58,0,0,0,10.59,0l12.54-7.24a10.6,10.6,0,0,0,5.3-9.17V294c0-.21,0-.43,0-.65L100,300.06a10.63,10.63,0,0,0,10.58,0l12.56-7.24a10.59,10.59,0,0,0,5.3-9.16V281.4l10.91,6.27,0,0,.76.44c.77.56,2.47,2.15,3.8,5.83l-.37-.22a10.32,10.32,0,0,0-10.54,0L122.63,300a10.29,10.29,0,0,0,0,17.84l37.06,21.81a10.29,10.29,0,0,0,10.43,0L181,333.39a10.31,10.31,0,0,0,.05-18l-8.27-4.78a42.31,42.31,0,0,0-.85-4.24l33.39,19.19a5,5,0,0,0,2.43.66h.07a5,5,0,0,0,5-5v-89A5.17,5.17,0,0,0,210.32,227.57Zm-188,81.63a3.74,3.74,0,0,1,3.72,0l11.6,6.7-12.17,6.61a7.88,7.88,0,0,0-1,.56,9,9,0,0,0-1-.71l-11.8-7ZM9.73,337.37a3.76,3.76,0,0,1-1.87-3.22v-13l12,7.11a1.78,1.78,0,0,1,.88,1.38c0,.09,0,.17,0,.26s0,.22,0,.34v13.51Zm28.82,0-10.88,6.28V329.86c0-.09,0-.17,0-.26a1.11,1.11,0,0,1,.65-.87l12.1-6.55v12A3.72,3.72,0,0,1,38.55,337.37Zm23.32-19.32-11-6.38A3.72,3.72,0,0,1,49,308.45v-13l12,7.09a1.83,1.83,0,0,1,.9,1.58Zm3.59-20.7a8.07,8.07,0,0,0-1-.71l-11.77-6.95,10.71-6.19a3.74,3.74,0,0,1,3.72,0l11.55,6.67-12.12,6.58A7,7,0,0,0,65.46,297.35Zm16.06,11.1a3.73,3.73,0,0,1-1.87,3.22L68.74,318V304.15s0,0,0-.07,0,0,0-.05a1.11,1.11,0,0,1,.67-1l12.11-6.56ZM102,293.26,90.9,286.87A3.74,3.74,0,0,1,89,283.65v-13l12,7.11a1.81,1.81,0,0,1,.88,1.38c0,.1,0,.19,0,.29s0,.23,0,.35Zm3.62-20.67a8,8,0,0,0-1.06-.74l-11.78-7,10.71-6.18a3.74,3.74,0,0,1,3.72,0l11.61,6.71L106.59,272A7.46,7.46,0,0,0,105.59,272.59Zm16,11.06a3.73,3.73,0,0,1-1.86,3.23l-10.89,6.27v-13.8c0-.08,0-.16,0-.23a1.1,1.1,0,0,1,.65-.85l12.12-6.56Zm19.33-29.24v13.51l-11.08-6.4A3.76,3.76,0,0,1,128,258.3v-13l12,7.11a1.8,1.8,0,0,1,.88,1.39c0,.09,0,.18,0,.28S140.91,254.3,140.92,254.41Zm25.55,64a3.42,3.42,0,0,0,6.82.43l4.4,2.54a3.49,3.49,0,0,1,1.32,1.32,3.46,3.46,0,0,1-1.36,4.7l-11,6.33a3.46,3.46,0,0,1-3.49,0l-37.09-21.84a3.34,3.34,0,0,1-1.27-1.26,3.46,3.46,0,0,1,1.33-4.72l10.4-6.27a3.45,3.45,0,0,1,3.55,0l5.39,3.11a.75.75,0,0,0,.13.06c.08,1.13.13,2.32.13,3.62a3.44,3.44,0,0,0,6.87,0,48.47,48.47,0,0,0-1.33-12l8.57,4.91.2.11.43.24C161.69,300.63,166.47,304.77,166.47,318.43Zm39.55-.36L164.15,294c-.35-.22-.65-.39-.89-.51l-34.81-20v-4.31c0-.18,0-.36,0-.54L139,274.71a10.56,10.56,0,0,0,10.58,0L159.4,269V261a4.11,4.11,0,0,1-.74.56l-10.88,6.28V254c0-.08,0-.16,0-.24a1.08,1.08,0,0,1,.65-.85l11-5.95v-3l-4.29-2.48-9.57,5.2a7,7,0,0,0-1,.55,7.57,7.57,0,0,0-1.05-.73l-11.77-7,10-5.78-6.86-4-8.45,4.88a10.62,10.62,0,0,0-5.3,9.17v14.49c0,.18,0,.36,0,.54l-10.54-6.09a10.65,10.65,0,0,0-10.59,0l-3.8,2.2L93,253.12V167.56L206,233Z"/><path class="cls-1" d="M161,353.37l-55.35-31.8c-6-3.48-19.68,3.85-19.81,3.92a69.93,69.93,0,0,0-13.31,9.28l-.25.25c-.3.32-.53.61-.76.89a5.67,5.67,0,0,1-.36.44,7,7,0,0,0,.27,9.83,6.11,6.11,0,0,0,1.3,1l52.65,31.16a10.36,10.36,0,0,0,10.3,0l.4-.23.32-.33a62,62,0,0,1,11.27-9c5.61-3.51,13.05-7.16,13.13-7.2l.19-.1a4.63,4.63,0,0,0,1.73-6.33A4.68,4.68,0,0,0,161,353.37Zm-17,9.54a69,69,0,0,0-12.13,9.63,3.43,3.43,0,0,1-3.06-.16L76.19,341.21l0-.18h0c.28-.3.49-.57.71-.84s.21-.27.34-.41a63.07,63.07,0,0,1,11.86-8.25c5.58-3,11.71-4.46,13.19-4l51.74,29.73C151.27,358.73,147.41,360.82,144.06,362.91Z"/><polygon class="cls-1" points="54.71 193.45 70.47 202.21 72.47 198.61 50.48 186.39 50.68 198.53 35.15 189.24 33.03 192.77 54.92 205.86 54.71 193.45"/><polygon class="cls-1" points="265.81 296.96 243.82 284.72 244.01 296.88 228.47 287.59 226.35 291.12 248.24 304.21 248.05 291.79 263.81 300.56 265.81 296.96"/><polygon class="cls-1" points="57.47 275.3 49.22 266.01 66.89 262.38 66.06 258.34 41.41 263.42 49.48 272.5 31.65 275.57 32.35 279.63 57.47 275.3"/><polygon class="cls-1" points="225.15 228.84 250.09 223.47 241.49 214.54 258.99 210.21 258 206.21 233.57 212.25 241.99 221 224.29 224.81 225.15 228.84"/><polygon class="cls-1" points="67.05 137.49 77.81 151.96 81.11 149.5 66.09 129.31 61.27 140.46 50.92 125.61 47.54 127.96 62.12 148.88 67.05 137.49"/><polygon class="cls-1" points="227.93 349.3 217.58 334.44 214.2 336.8 228.78 357.72 233.7 346.33 244.46 360.79 247.76 358.33 232.74 338.15 227.93 349.3"/><rect class="cls-1" x="113.06" y="142" width="4.12" height="20.85" transform="translate(-44.43 47.4) rotate(-19.58)"/><rect class="cls-1" x="64.67" y="162.34" width="4.12" height="20.8" transform="translate(-108.21 112.03) rotate(-49.74)"/><rect class="cls-1" x="230.23" y="306.32" width="4.12" height="20.81" transform="translate(-159.54 289.46) rotate(-49.76)"/><rect class="cls-1" x="178.85" y="187.13" width="19.61" height="4.12" transform="translate(-76.48 222.15) rotate(-52.17)"/><rect class="cls-1" x="59.57" y="217.84" width="4.12" height="29.22" transform="translate(-176.54 265.68) rotate(-83.09)"/><rect class="cls-1" x="235.89" y="243.45" width="4.12" height="28.48" transform="translate(-53.84 452.33) rotate(-80.99)"/><path class="cls-1" d="M209.32,227.57l-118-68.34a3.81,3.81,0,0,0-2-.53,4.17,4.17,0,0,0-4.16,4.16v90.55a6.16,6.16,0,0,0,3.1,5.46l.08.06L86.48,260a10.6,10.6,0,0,0-5.3,9.17v14.48c0,.22,0,.43,0,.65l-11.69-6.75a10.58,10.58,0,0,0-10.58,0L46.41,284.8A10.63,10.63,0,0,0,41.1,294v14.48a10.45,10.45,0,0,0,.28,2.32l-.4-.27-12.55-7.24a10.58,10.58,0,0,0-10.58,0L5.3,310.5A10.62,10.62,0,0,0,0,319.67v14.48a10.64,10.64,0,0,0,5.3,9.17l12.55,7.24a10.56,10.56,0,0,0,10.58,0L41,343.32a10.66,10.66,0,0,0,5.3-9.17V319.66a10.59,10.59,0,0,0-.28-2.32l.4.28L59,324.86a10.58,10.58,0,0,0,10.59,0l12.54-7.24a10.6,10.6,0,0,0,5.3-9.17V294c0-.21,0-.43,0-.65L99,300.06a10.63,10.63,0,0,0,10.58,0l12.56-7.24a10.59,10.59,0,0,0,5.3-9.16V281.4l10.91,6.27,0,0,.76.44c.77.56,2.47,2.15,3.8,5.83l-.37-.22a10.32,10.32,0,0,0-10.54,0L121.63,300a10.29,10.29,0,0,0,0,17.84l37.06,21.81a10.29,10.29,0,0,0,10.43,0L180,333.39a10.31,10.31,0,0,0,.05-18l-8.27-4.78a42.31,42.31,0,0,0-.85-4.24l33.39,19.19a5,5,0,0,0,2.43.66h.07a5,5,0,0,0,5-5v-89A5.17,5.17,0,0,0,209.32,227.57Zm-188,81.63a3.74,3.74,0,0,1,3.72,0l11.6,6.7-12.17,6.61a7.88,7.88,0,0,0-1,.56,9,9,0,0,0-1-.71l-11.8-7ZM8.73,337.37a3.76,3.76,0,0,1-1.87-3.22v-13l12,7.11a1.78,1.78,0,0,1,.88,1.38c0,.09,0,.17,0,.26s0,.22,0,.34v13.51Zm28.82,0-10.88,6.28V329.86c0-.09,0-.17,0-.26a1.11,1.11,0,0,1,.65-.87l12.1-6.55v12A3.72,3.72,0,0,1,37.55,337.37Zm23.32-19.32-11-6.38A3.72,3.72,0,0,1,48,308.45v-13l12,7.09a1.83,1.83,0,0,1,.9,1.58Zm3.59-20.7a8.07,8.07,0,0,0-1-.71l-11.77-6.95,10.71-6.19a3.74,3.74,0,0,1,3.72,0l11.55,6.67-12.12,6.58A7,7,0,0,0,64.46,297.35Zm16.06,11.1a3.73,3.73,0,0,1-1.87,3.22L67.74,318V304.15s0,0,0-.07,0,0,0-.05a1.11,1.11,0,0,1,.67-1l12.11-6.56ZM101,293.26,89.9,286.87A3.74,3.74,0,0,1,88,283.65v-13l12,7.11a1.81,1.81,0,0,1,.88,1.38c0,.1,0,.19,0,.29s0,.23,0,.35Zm3.62-20.67a8,8,0,0,0-1.06-.74l-11.78-7,10.71-6.18a3.74,3.74,0,0,1,3.72,0l11.61,6.71L105.59,272A7.46,7.46,0,0,0,104.59,272.59Zm16,11.06a3.73,3.73,0,0,1-1.86,3.23l-10.89,6.27v-13.8c0-.08,0-.16,0-.23a1.1,1.1,0,0,1,.65-.85l12.12-6.56Zm19.33-29.24v13.51l-11.08-6.4A3.76,3.76,0,0,1,127,258.3v-13l12,7.11a1.8,1.8,0,0,1,.88,1.39c0,.09,0,.18,0,.28S139.91,254.3,139.92,254.41Zm25.55,64a3.42,3.42,0,0,0,6.82.43l4.4,2.54a3.49,3.49,0,0,1,1.32,1.32,3.46,3.46,0,0,1-1.36,4.7l-11,6.33a3.46,3.46,0,0,1-3.49,0l-37.09-21.84a3.34,3.34,0,0,1-1.27-1.26,3.46,3.46,0,0,1,1.33-4.72l10.4-6.27a3.45,3.45,0,0,1,3.55,0l5.39,3.11a.75.75,0,0,0,.13.06c.08,1.13.13,2.32.13,3.62a3.44,3.44,0,0,0,6.87,0,48.47,48.47,0,0,0-1.33-12l8.57,4.91.2.11.43.24C160.69,300.63,165.47,304.77,165.47,318.43Zm39.55-.36L163.15,294c-.35-.22-.65-.39-.89-.51l-34.81-20v-4.31c0-.18,0-.36,0-.54L138,274.71a10.56,10.56,0,0,0,10.58,0L158.4,269V261a4.11,4.11,0,0,1-.74.56l-10.88,6.28V254c0-.08,0-.16,0-.24a1.08,1.08,0,0,1,.65-.85l11-5.95v-3l-4.29-2.48-9.57,5.2a7,7,0,0,0-1,.55,7.57,7.57,0,0,0-1.05-.73l-11.77-7,10-5.78-6.86-4-8.45,4.88a10.62,10.62,0,0,0-5.3,9.17v14.49c0,.18,0,.36,0,.54l-10.54-6.09a10.65,10.65,0,0,0-10.59,0l-3.8,2.2L92,253.12V167.56L205,233Z"/></g></g></g></g></svg>