<svg xmlns="http://www.w3.org/2000/svg" viewBox="0 0 191.69 309.72"><defs><style>.cls-1{fill:#fff;}</style></defs><title>difference-tree.complex</title><g id="Layer_2" data-name="Layer 2"><g id="Layer_9" data-name="Layer 9"><g id="difference-tree"><path class="cls-1" d="M133.55,47.72a16.13,16.13,0,0,0-16.1,0l-7.8,4.51a16.15,16.15,0,0,0-8.05,14v9a3.44,3.44,0,0,0,6.87,0v-9a9.25,9.25,0,0,1,4.61-8l7.8-4.56a9.24,9.24,0,0,1,9.24,0,3.43,3.43,0,0,0,3.47-5.92l0,0Z"/><path class="cls-1" d="M188.61,244.67a12.35,12.35,0,0,0-9.39-4.36H164.4l-6.4-3.48v-6A12.34,12.34,0,0,0,151.51,220l-8.83-4.83V125.71h.19a18.76,18.76,0,0,0,9.42-2.53l25-14.41a18.91,18.91,0,0,0,9.42-16.32V63.62a18.92,18.92,0,0,0-9.42-16.33l-8.61-5V33.21a18.89,18.89,0,0,0-9.41-16.33l-25-14.41a19.23,19.23,0,0,0-18.85,0l-25,14.41A18.92,18.92,0,0,0,81,33.21V41.9l-9.36,5.41a18.89,18.89,0,0,0-9.42,16.32V92.46a18.89,18.89,0,0,0,9.42,16.32l25,14.42a18.93,18.93,0,0,0,11,2.47v37.21l-1.54-.89a10.6,10.6,0,0,0-10.59,0L83,169.23a10.62,10.62,0,0,0-5.3,9.17V190l-10.37-6a10.62,10.62,0,0,0-10.59,0l-12.56,7.3a10.62,10.62,0,0,0-5.31,9.16v11.61l-10.39-6.06a10.63,10.63,0,0,0-10.58,0L5.3,213.3A10.62,10.62,0,0,0,0,222.47V237a10.66,10.66,0,0,0,5.23,9.17l12.55,7.24a10.56,10.56,0,0,0,10.58,0l12.52-7.23A10.58,10.58,0,0,0,46.26,237V225.31l10.4,6a10.63,10.63,0,0,0,10.58,0l12.55-7.25a10.66,10.66,0,0,0,5.3-9.08V203.33l10.4,6a10.65,10.65,0,0,0,10.59,0l1.54-.89v7.33l-7.81,4.12a12.35,12.35,0,0,0-6.5,10.87v6.36l-6.07,3.73a12.37,12.37,0,0,0-5.95,10.57v2.27l-8.56.11a12.68,12.68,0,0,0-7.6,2.48A12.46,12.46,0,0,0,61,270.52a12.17,12.17,0,0,0,11.6,8l21.25-.29a12.35,12.35,0,0,0,12.19-12.35v-7.5l5.12-3.13a10.9,10.9,0,0,0,1.38-1v1a12.33,12.33,0,0,0,6.23,10.74l8.56,4.88v2.09l-4.92,2.75a12.36,12.36,0,0,0-6.31,10.77V297a12.36,12.36,0,0,0,12,12.72h.38a12.36,12.36,0,0,0,12.36-12.35v-3.73l4.92-2.75a12.38,12.38,0,0,0,6.31-10.76V263.65a11.66,11.66,0,0,0-.16-1.95l3.34,1.87a12.35,12.35,0,0,0,6,1.57H179a12.64,12.64,0,0,0,12.59-10.51A12.3,12.3,0,0,0,188.61,244.67Zm-168.81,2L8.69,240.23A3.76,3.76,0,0,1,6.86,237V224l12,7.11a1.79,1.79,0,0,1,.88,1.37,2.53,2.53,0,0,0,0,.28h0Zm3.6-20.75a8.47,8.47,0,0,0-1-.72l-11.8-7L21.28,212a3.73,3.73,0,0,1,1.86-.5A3.79,3.79,0,0,1,25,212l11.57,6.75-12.15,6.59A7.64,7.64,0,0,0,23.4,225.89ZM39.4,237a3.74,3.74,0,0,1-1.92,3.26l-10.82,6.25V232.67a2,2,0,0,0,0-.25,1.12,1.12,0,0,1,.66-.86L39.4,225Zm19.23-12.42-11.09-6.41a3.71,3.71,0,0,1-1.85-3.2v-13l12,7.12a1.82,1.82,0,0,1,.88,1.37c0,.1,0,.19,0,.28h0Zm3.6-20.69a8.36,8.36,0,0,0-1-.72l-11.74-6.94L60.13,190a3.74,3.74,0,0,1,3.72,0l11.59,6.69-12.19,6.61A9.13,9.13,0,0,0,62.23,203.84Zm16,11.1a3.72,3.72,0,0,1-1.86,3.18L65.5,224.4V210.62c0-.08,0-.17,0-.25a1.13,1.13,0,0,1,.65-.86L78.22,203Zm19.2-12.46-11-6.32a3.74,3.74,0,0,1-1.87-3.25v-13l12,7.11a1.82,1.82,0,0,1,.91,1.57Zm3.63-20.65a7.91,7.91,0,0,0-1.07-.75l-11.75-7,10.7-6.18a3.71,3.71,0,0,1,1.86-.5,3.76,3.76,0,0,1,1.86.5l11.62,6.71-12.16,6.6A8.43,8.43,0,0,0,101.05,181.83Zm3.23,20.58V188.52h0a1.11,1.11,0,0,1,.68-1.05l12.06-6.54v11.95a3.71,3.71,0,0,1-1.87,3.22Zm79.57,53.35h0a5.52,5.52,0,0,1-4.62,2.4h-18a5.52,5.52,0,0,1-2.75-.7l-15.54-8.58a5.5,5.5,0,0,1-2.81-4.79v-10l-4.49-2.51L131.35,234v15.24a5.65,5.65,0,0,0,2.83,4.87l8.13,4.67a5.47,5.47,0,0,1,2.74,4.76V280a5.48,5.48,0,0,1-2.74,4.79l-8.39,4.83v7.51a5.61,5.61,0,0,1-4.35,5.61,5.5,5.5,0,0,1-6.65-5.36v-11a5.51,5.51,0,0,1,2.75-4.79l8.43-4.73V266.81l-12-6.86a5.49,5.49,0,0,1-2.74-4.77v-21l-4-2.36-4,2.17v10.05a5.48,5.48,0,0,1-2.65,4.69l-9.61,5.74v11.37a5.5,5.5,0,0,1-5.42,5.49l-21.19.29a5.3,5.3,0,0,1-4.92-3,5.62,5.62,0,0,1,.33-5.42,5.46,5.46,0,0,1,4.54-2.52l15.66-.22v-9a5.51,5.51,0,0,1,2.65-4.69l9.35-5.66V230.81a5.5,5.5,0,0,1,2.89-4.83l11.42-6.12V204.51l4.26-2.46a10.63,10.63,0,0,0,5.31-9.17V178.4a10.66,10.66,0,0,0-5.3-9.17l-4.27-2.46V123.62l8.23-4.28a3.43,3.43,0,0,0-3.17-6.08l-9.61,5a12.16,12.16,0,0,1-9.81-.93l-24.91-14.5a12,12,0,0,1-6-10.37V63.62a12,12,0,0,1,6-10.38l12.8-7.39V33.21a12,12,0,0,1,6-10.38L118.82,8.41a12.18,12.18,0,0,1,12,0l25,14.42a12,12,0,0,1,6,10.38V46.29l12,7a12,12,0,0,1,6,10.38V92.45a12,12,0,0,1-6,10.37l-25,14.42a12.13,12.13,0,0,1-12,0l-1-.58V219.24L148.23,226a5.51,5.51,0,0,1,2.88,4.84V241l11.49,6.31h16.62a5.36,5.36,0,0,1,5,3.11A5.65,5.65,0,0,1,183.85,255.76Z"/></g></g></g></svg>