<svg xmlns="http://www.w3.org/2000/svg" viewBox="0 0 234.03 234.03"><defs><style>.cls-1{fill:#f4cb47;}.cls-2{fill:none;}</style></defs><title>fighting-climate-change</title><g id="Layer_2" data-name="Layer 2"><g id="Layer_6" data-name="Layer 6"><g id="fighting-climate-change"><path class="cls-1" d="M103.05,88l7.67,4.23a11.15,11.15,0,0,0,5.48,1.4,11,11,0,0,0,5.57-1.5l7.63-4.33A11.28,11.28,0,0,0,135.07,78V69.29a11.26,11.26,0,0,0-5.57-9.71l-7.63-4.44a11.25,11.25,0,0,0-11.2,0L103,59.43a11.22,11.22,0,0,0-5.73,9.81v8.92A11.24,11.24,0,0,0,103.05,88Zm-.8-18.78a6.31,6.31,0,0,1,3.19-5.48l7.67-4.33a6.17,6.17,0,0,1,3.09-.8,6.26,6.26,0,0,1,3.13.85L127,63.86a6.24,6.24,0,0,1,3.13,5.43V78A6.24,6.24,0,0,1,127,83.44l-7.63,4.33a6.31,6.31,0,0,1-6.17,0l-7.67-4.23a6.24,6.24,0,0,1-3.24-5.48Z"/><path class="cls-1" d="M182.5,83.93a3.92,3.92,0,0,0-.7.1l-6.92,1.85a12.83,12.83,0,0,0-8.67,7.82,11.91,11.91,0,0,0-.25-1.3,36.61,36.61,0,0,0-3.59-9.61,2.44,2.44,0,0,0-3.38-.85,2.47,2.47,0,0,0-.9,3.39c.1.15,7.82,13.55.15,23.51-.4.5-.8,1-1.15,1.54l-1.34-5a12.86,12.86,0,0,0-9.17-9.11l-6.47-1.7a3.44,3.44,0,0,0-.65-.1A2.57,2.57,0,0,0,137,97.68l1.74,6.68a12.75,12.75,0,0,0,8.82,9.06l6.42,1.9a37.25,37.25,0,0,0-1.69,3.33h-.95a4.18,4.18,0,0,1-2.14-.59L107.33,93.9c-15.14-8.77-28.25,1-33.58,8.22L62.5,117.21a28.14,28.14,0,0,0-5.63,16.84v2.49a15.4,15.4,0,0,0,7.67,13.3l10.26,5.92H58.31A9.25,9.25,0,0,0,49.05,165v4.88a9.25,9.25,0,0,0,9.26,9.27h50.07A18.94,18.94,0,0,0,123,172.3a17.44,17.44,0,0,0-4.68-26.3l-11.61-6.67a9.11,9.11,0,0,1-4.53-7.87v-.25a4.55,4.55,0,0,1,.7-2.39l4-6a4.34,4.34,0,0,1,5.73-1.35l25,14.4a9.27,9.27,0,0,0,4.63,1.24h7.32a53.55,53.55,0,0,0,2.84,11.26c.9,7.08-.4,12.7-3.89,16.74-6,6.87-16.48,7.07-16.63,7.07a2.49,2.49,0,1,0,0,5h0c.5,0,12.9-.2,20.37-8.76a21,21,0,0,0,2-2.74A83.7,83.7,0,0,1,150.57,184a2.53,2.53,0,0,0,1.54,3.19,2.26,2.26,0,0,0,.8.15,2.46,2.46,0,0,0,2.34-1.7,85.78,85.78,0,0,0,3.14-13.2,79.75,79.75,0,0,0,.94-9.86,47.8,47.8,0,0,0,16.29,14.3,3.11,3.11,0,0,0,1.1.24,2.45,2.45,0,0,0,2.24-1.39,2.49,2.49,0,0,0-1.15-3.34,44.16,44.16,0,0,1-20-23.46c-.2-.65-.4-1.3-.65-1.94h0V147a50.21,50.21,0,0,1-2.59-9.82h3.89a9.27,9.27,0,0,0,0-18.53h-.7a47.53,47.53,0,0,1,4.38-6.77,20.2,20.2,0,0,0,3.59-7.27,1.94,1.94,0,0,0,.75.1,2.76,2.76,0,0,0,.64-.1l6.68-1.75A12.76,12.76,0,0,0,182.85,94l2-6.88A2.43,2.43,0,0,0,182.5,83.93Zm-33.73,25.26a8.43,8.43,0,0,1-5.77-5.93l-.9-3.54,3.34.85a8.43,8.43,0,0,1,6,5.93l1,3.69Zm14,18.73a4.31,4.31,0,0,1-4.28,4.28H142.25a4.13,4.13,0,0,1-2.14-.59l-25-14.35a9.3,9.3,0,0,0-12.35,2.89l-4,6a9.33,9.33,0,0,0-1.54,5.13v.25a14.16,14.16,0,0,0,7,12.2l11.61,6.67a12.49,12.49,0,0,1,3.33,18.78,14,14,0,0,1-10.85,5.09H58.31A4.32,4.32,0,0,1,54,170v-4.88a4.31,4.31,0,0,1,4.28-4.28H93.43L67,145.55a10.39,10.39,0,0,1-5.18-9V134.1a23.55,23.55,0,0,1,4.58-13.9l11.26-15.1c4.33-5.82,14.94-13.84,27.1-6.87l41.84,24.16a9.33,9.33,0,0,0,4.63,1.24h7.23A4.33,4.33,0,0,1,162.77,127.92Zm15.89-35.07a8.46,8.46,0,0,1-5.93,5.78l-3.53.9.84-3.34a8.46,8.46,0,0,1,5.93-6l3.69-1Z"/><path class="cls-1" d="M146.33,70.43a2.19,2.19,0,0,1,1.35,2.35,7.18,7.18,0,0,0,3.58,7.07,7.27,7.27,0,0,0,8-.45,2.31,2.31,0,0,1,2.74,0,7.27,7.27,0,0,0,4.29,1.45,7.36,7.36,0,0,0,3.63-1,7.1,7.1,0,0,0,3.59-7.07,2.32,2.32,0,0,1,1.35-2.35,7.31,7.31,0,0,0,0-13.35,2.17,2.17,0,0,1-1.35-2.34,7.17,7.17,0,0,0-3.59-7.07,7.25,7.25,0,0,0-8,.45,2.31,2.31,0,0,1-2.74,0,7.25,7.25,0,0,0-8-.45,7.08,7.08,0,0,0-3.58,7.07,2.3,2.3,0,0,1-1.35,2.34A7.19,7.19,0,0,0,142,63.76,7.38,7.38,0,0,0,146.33,70.43Zm2-8.76a7.24,7.24,0,0,0,4.29-7.47A2.26,2.26,0,0,1,153.8,52a2.18,2.18,0,0,1,2.5.15,7.22,7.22,0,0,0,8.61,0h0A2.25,2.25,0,0,1,167.4,52a2.3,2.3,0,0,1,1.15,2.25,7.3,7.3,0,0,0,4.28,7.47,2.26,2.26,0,0,1,0,4.18,7.23,7.23,0,0,0-4.28,7.47,2.24,2.24,0,0,1-1.15,2.25,2.18,2.18,0,0,1-2.49-.15,7.18,7.18,0,0,0-4.28-1.4,7.06,7.06,0,0,0-4.28,1.4,2.29,2.29,0,0,1-2.5.15,2.31,2.31,0,0,1-1.14-2.25,7.31,7.31,0,0,0-4.29-7.47A2.23,2.23,0,0,1,147,63.76,2.09,2.09,0,0,1,148.37,61.67Z"/><rect class="cls-2" width="234.03" height="234.03"/></g></g></g></svg>