<svg xmlns="http://www.w3.org/2000/svg" viewBox="0 0 234.03 234.03"><defs><style>.cls-1{fill:#f3cb48;}.cls-2{fill:#f3cb49;}.cls-3{fill:#f4cb46;}.cls-4{fill:none;}</style></defs><title>improving-carbon-trading</title><g id="Layer_2" data-name="Layer 2"><g id="Layer_6" data-name="Layer 6"><g id="improving-carbon-trading"><g id="Layer_1-2" data-name="Layer 1"><path class="cls-1" d="M156.44,112.52c1.47.45,3,.46,4.5.77a39.63,39.63,0,0,1,26.87,19.8c.31.57.36.87-.33,1.16a20.48,20.48,0,0,0-2.79,1.45c-.64.41-.86.16-1.18-.39a34,34,0,0,0-18.64-15.94,34.71,34.71,0,0,0-44.35,21,35.84,35.84,0,0,0-1.25,4.42A34.64,34.64,0,0,0,183.33,169c.64-1.14.64-1.15,1.84-.53.81.43,1.62.88,2.45,1.29.5.23.57.43.29.94a39.37,39.37,0,0,1-15,15.43,38.13,38.13,0,0,1-23.26,5.14,38.92,38.92,0,0,1-34.5-28.89c-3.59-13.36-.76-25.56,8.2-36.16A38.45,38.45,0,0,1,147.3,113a12.71,12.71,0,0,0,2.67-.43Z"/><path class="cls-2" d="M191.92,158.89a4,4,0,1,1-4-4,4,4,0,0,1,4,4Z"/><path class="cls-1" d="M187.92,149a4,4,0,1,1,4-3.95,3.86,3.86,0,0,1-3.77,3.95Z"/><path class="cls-3" d="M110.33,74.76A2.21,2.21,0,0,0,108.11,77h0l.22,23.27a2.22,2.22,0,0,0,4.43,0h0L112.55,77A2.23,2.23,0,0,0,110.33,74.76Z"/><path class="cls-3" d="M83.53,52.64a2.22,2.22,0,0,0,.81,3h0L106.53,68.2a2.15,2.15,0,0,0,1.08.28,2.25,2.25,0,0,0,1.93-1.1,2.22,2.22,0,0,0-.81-3h0L86.54,51.83a2.09,2.09,0,0,0-1.09-.28A2.2,2.2,0,0,0,83.53,52.64Z"/><path class="cls-3" d="M80.12,59.07a2.21,2.21,0,0,0,.81,3h0l21.48,12.13a2.22,2.22,0,0,0,2.19-3.86h0L83.12,58.25A2.15,2.15,0,0,0,82,58,2.22,2.22,0,0,0,80.12,59.07Z"/><path class="cls-3" d="M108.71,110.47a2.22,2.22,0,0,0-2.1-3.91l-.15.09-22.87,13.5a2.22,2.22,0,1,0,2.09,3.91l.16-.09Z"/><path class="cls-3" d="M79.46,116.62a2.2,2.2,0,0,0,3,.81h0l22-12.63a2.21,2.21,0,0,0,.77-3,2.18,2.18,0,0,0-1.34-1,2.12,2.12,0,0,0-.57-.07,2.17,2.17,0,0,0-1.1.3L80.24,113.61A2.23,2.23,0,0,0,79.46,116.62Z"/><path class="cls-3" d="M50.56,106.83a2.22,2.22,0,0,0,.81,3h0l22.16,12.52a2.22,2.22,0,1,0,2.37-3.75l-.19-.11L53.57,106a2.3,2.3,0,0,0-1.09-.28A2.23,2.23,0,0,0,50.56,106.83Z"/><path class="cls-3" d="M55.31,74.37a2.21,2.21,0,0,0-2.22,2.21v0l.22,23.27a2.22,2.22,0,0,0,4.44,0v0l-.22-23.27A2.23,2.23,0,0,0,55.31,74.37Z"/><path class="cls-3" d="M48,74.37a2.22,2.22,0,0,0-2.22,2.21v0L46,99.87a2.22,2.22,0,0,0,4.44,0v0l-.22-23.27A2.22,2.22,0,0,0,48,74.37Z"/><path class="cls-3" d="M50.2,69l0,.08a2.17,2.17,0,0,0,3,.81l0,0,22.91-13.5a2.22,2.22,0,1,0-2.25-3.82L51,66A2.17,2.17,0,0,0,50.2,69Z"/><polygon class="cls-3" points="137.19 25.35 151.74 49.74 118.67 69.47 118.99 74.49 157.91 51.29 146.62 32.37 199.71 45.78 186.3 98.87 175.01 79.95 60.59 147.91 46.03 123.53 28.86 191.51 96.84 208.68 82.29 184.29 110.89 167.39 109.53 162.93 76.12 182.74 87.41 201.66 34.33 188.25 47.74 135.16 59.02 154.08 173.45 86.12 188 110.5 205.18 42.52 137.19 25.35"/></g><rect class="cls-4" width="234.03" height="234.03"/></g></g></g></svg>