<svg xmlns="http://www.w3.org/2000/svg" viewBox="0 0 207.81 207.81"><defs><style>.cls-1{fill:#fff;}.cls-2{fill:#f4cb47;}</style></defs><title>method-recycling.complex</title><g id="Layer_2" data-name="Layer 2"><g id="Layer_7" data-name="Layer 7"><g id="method-recycling"><circle class="cls-1" cx="103.9" cy="103.9" r="103.89"/><g id="Layer_1-2" data-name="Layer 1"><path class="cls-2" d="M71.61,92.24,77.86,104l-1.76,2.77L62.83,127.57a28.89,28.89,0,0,0-1.52,2.57L51,111.92a5.67,5.67,0,0,1-1-2.66,8.52,8.52,0,0,1,1.57-3.76l5.63-8.75,2.54-4-.52-.3,12.38-.31m2.71-4.56-25.65.62A1.59,1.59,0,0,0,47,89.71a1.93,1.93,0,0,0,0,.34c0,.25.37.62,1.1,1.09l5.31,3.21-5.63,8.75a12.55,12.55,0,0,0-2.34,6.17,10,10,0,0,0,1.52,4.93l17.43,30.42a25.84,25.84,0,0,1-.62-5.47A16.47,16.47,0,0,1,66.61,130L79.9,109.15l5.23,3.21c.89,0,1.33-.36,1.33-1.09a5,5,0,0,0-.51-1.94L74.32,87.61Z"/><path class="cls-2" d="M83.93,55.31c3.62,0,7.82,4.74,11.93,13.43L85.35,85l-6.79-4.56-9.34-6.21,11.26-18c.33-.54,1.66-.88,3.45-.88m0-4.56q-5.48,0-7.35,3L63,75.57,76,84.31l10.64,7.14,14.39-22.29Q93,50.74,83.93,50.74Z"/><path class="cls-2" d="M98.12,127.49v19.78H74.94c-.71,0-2.63,0-2.63-6.62a13.13,13.13,0,0,1,1.52-6.08,72.55,72.55,0,0,1,4.52-7.08H98.12m4.57-4.56H76a97.64,97.64,0,0,0-6.17,9.54,17.65,17.65,0,0,0-2.09,8.14q0,11.17,7.2,11.18h27.79V122.93Z"/><path class="cls-2" d="M118.32,52.16c6.73,0,8.75,2.49,9.69,4.36l5.1,10.24,2,3.92,1.09-.5-6.57,11.17-13.4-1.07-1.43-3-6.42-13.45a64.79,64.79,0,0,0-6.91-11.68h16.87m0-4.56H86.2a25.39,25.39,0,0,1,8,3.51q4.92,4,10,14.74l6.4,13.45-4.76,2.26a1.23,1.23,0,0,0-.7,1.25c0,.78.49,1.23,1.52,1.32l25.4,2,12.35-20.79a4.54,4.54,0,0,0,.63-2.27c0-.94-.32-1.41-1-1.41a5,5,0,0,1-1.24.47l-5.63,2.59-5.16-10.24q-3.44-6.88-13.69-6.88Z"/><path class="cls-2" d="M150.92,126.22l-10.5,19.09c-.62,1.15-1.61,2.22-4.56,2.22H120.18v1.08L113.29,138l6.51-11.16H143a54.88,54.88,0,0,0,7.9-.51m11.48-11.4a20.11,20.11,0,0,1-8.67,6.08,35.7,35.7,0,0,1-10.64,1.25H123V118c0-1.61-.39-2.42-1.17-2.42a1.37,1.37,0,0,0-1.25.62l-12.67,22,13.13,20.17c.82,1.26,1.55,1.9,2.19,1.9a1,1,0,0,0,.38-.08c.73-.21,1.1-.59,1.1-1.17v-6.92h11.1q6.09,0,8.59-4.56l18-32.72Z"/><path class="cls-2" d="M145.41,86.38l11.9,18.16a2.51,2.51,0,0,1,.55,1.43c0,1.45-1.08,3-3.24,4.75a10.11,10.11,0,0,1-6.09,2.72h-9.34L128.7,96.1l6.69-3.89,10-5.83m1.52-6.08-13.69,8-10.65,6.22,14.22,23.53h12a14.31,14.31,0,0,0,8.68-3.79q4.94-3.9,4.93-8.29a7,7,0,0,0-1.32-4L146.8,80.27Z"/></g><path class="cls-2" d="M103.9,180.72a76.82,76.82,0,1,1,76.82-76.82A76.9,76.9,0,0,1,103.9,180.72Zm0-150.63a73.82,73.82,0,1,0,73.82,73.81A73.89,73.89,0,0,0,103.9,30.09Z"/></g></g></g></svg>