<svg xmlns="http://www.w3.org/2000/svg" viewBox="0 0 207.81 207.81"><defs><style>.cls-1{fill:#fff;}.cls-2{fill:#f4cb47;}</style></defs><title>method-retiring.complex</title><g id="Layer_2" data-name="Layer 2"><g id="Layer_7" data-name="Layer 7"><g id="method-retiring"><circle class="cls-1" cx="103.9" cy="103.9" r="103.89"/><path class="cls-2" d="M130,147.24h-7.36l-.73,4.52H130a2.27,2.27,0,0,1,0,4.54H28.11a2.27,2.27,0,1,1,0-4.54h10.6l.72-4.52H28.11a6.79,6.79,0,0,0,0,13.58H130a6.79,6.79,0,1,0,0-13.58Z"/><path class="cls-2" d="M127.14,95.12l-9.79,61.18h3.82l9.6-60A26.63,26.63,0,0,1,127.14,95.12Z"/><polygon class="cls-2" points="109.82 80.33 51.62 71.03 37.98 156.3 41.8 156.3 54.75 75.34 106.87 83.68 109.82 80.33"/><path class="cls-2" d="M196.07,72.91q-10.15-14.83-20.29-29.68l-10.3-15.06-1.22-1.8-.62-.9c-.08-.12-.18-.38-.31-.45s-.31.05-.53.2L159,27.85,151.39,33c-4.42,3-8.83,6.07-13.28,9q2.1,2.94,4.14,5.92c-4.38.62-8.66,1.81-13,2.83s-8.67,2.1-13,3.34c-3.66,1.05-7.51,2-10.71,4.15s-6,5.46-8.71,8.36c-3.25,3.5-6.77,6.72-10.25,10,1.33.21,2.67.39,4,.64.49.09.75.22,1.13-.15s.89-.91,1.34-1.35c2-1.92,4-3.81,5.91-5.83s3.67-4,5.63-5.89a27.4,27.4,0,0,1,3-2.6,14.76,14.76,0,0,1,3.45-1.7,147.86,147.86,0,0,1,16.42-4.69c4.75-1.14,9.52-2.19,14.29-3.2l6.67-1.42-4.15-6.06a7.34,7.34,0,0,1-.81-1.19s-.12-.12-.11-.17.72-.49.86-.59l1.08-.74,7.94-5.43,9-6.12,16.88,24.69L187.6,67.2l2.07,3c.31.46.61.93.94,1.36.18.23.54.52.6.81s-.24.45-.5.61c-.49.31-1,.65-1.44,1l-3.09,2.11-13.73,9.39-5.06-7.41-8.08-11.8-1.85-2.72-2.79,2c-.32.22-.27.11-.16.39a5.89,5.89,0,0,0,.81,1.18l2.46,3.61.93,1.37c.32.46.31.46.18,1.08a26.06,26.06,0,0,1-6.64,13,23.71,23.71,0,0,1-13.86,6.48,19.64,19.64,0,0,1-8.49-.57,29.88,29.88,0,0,1-3.64-1.66c-1.39-.64-2.44.34-3.55,1.11-4.27,3-8.54,6.5-13.56,8.09a28.78,28.78,0,0,1-4.1.88,5.13,5.13,0,0,1-1.83.09,3.2,3.2,0,0,1-1.51-.94c-1.08-1-3.19-2-3.51-3.58-.21-1,.85-1.58,1.54-2.06,1.16-.81,2.36-1.54,3.56-2.28a35.3,35.3,0,0,0,3.49-2.33,22.35,22.35,0,0,0,2.55-2.85c3.91-4.44,7.72-9,11.75-13.33a26.56,26.56,0,0,1,13.61-7.91,27.28,27.28,0,0,1,4.31-.61,6,6,0,0,0-4.95-1.86A21.17,21.17,0,0,0,127.81,64c-4.49,1.49-8,5-11.06,8.44-3.52,3.92-7.06,7.86-10.46,11.89a14.75,14.75,0,0,1-2.24,2.43c-1,.71-2,1.29-3,1.94l-3.27,2.16a8.27,8.27,0,0,0-2.42,2.06A5.28,5.28,0,0,0,95,98.41a8.67,8.67,0,0,0,2.2,2.4c.91.77,1.81,1.55,2.74,2.31,1.88,1.53,4.19,1.35,6.46,1a26,26,0,0,0,7.17-2.18,45.42,45.42,0,0,0,6.22-3.81L122.92,96c.51-.36,1-.71,1.55-1.06.28-.19.76-.7,1.12-.66s.68.39.94.52a10.92,10.92,0,0,0,1.84.75,19.81,19.81,0,0,0,3.56.84,28.66,28.66,0,0,0,7.63-.1,27.93,27.93,0,0,0,13-5.35,26.56,26.56,0,0,0,8.36-11.29c.35-.9,1.05-2,1-3l1.36,2,1,1.5a5.51,5.51,0,0,1,.65,1,4.9,4.9,0,0,1-.32,2.2,14.52,14.52,0,0,1-1,2.67,18.37,18.37,0,0,1-3.08,4.54A28.76,28.76,0,0,1,151.27,97c-4.2,1.92-8.77,2.76-13,4.59a43.19,43.19,0,0,0-6.8,3.65c-.72.49-2.12,1.1-2.44,1.94a9.59,9.59,0,0,0-.32,2l-.34,2.1c3.12-1.79,6.2-3.73,9.45-5.3a58.42,58.42,0,0,1,9.6-3.53,34.16,34.16,0,0,0,15.41-8.81,20.41,20.41,0,0,0,3.08-4,11.79,11.79,0,0,0,1-2.56,5,5,0,0,0,.42-2.39l2.13,3.12L171,90c.08.1.34.64.47.68s.37-.22.46-.28c5.23-3.54,10.44-7.13,15.66-10.7l5.84-4c.8-.55,1.59-1.12,2.41-1.63.18-.11.59-.28.65-.49S196.19,73.1,196.07,72.91Z"/><path class="cls-2" d="M68.5,115a5.49,5.49,0,0,1-2.75-.74A5.43,5.43,0,0,1,63,108.92a1.68,1.68,0,0,0-1-1.75,5.49,5.49,0,0,1,0-10,1.68,1.68,0,0,0,1-1.75,5.49,5.49,0,0,1,8.69-5,1.71,1.71,0,0,0,2,0h0a5.48,5.48,0,0,1,8.68,5,1.71,1.71,0,0,0,1,1.75,5.48,5.48,0,0,1,0,10,1.71,1.71,0,0,0-1,1.75,5.47,5.47,0,0,1-8.68,5,1.71,1.71,0,0,0-2,0A5.46,5.46,0,0,1,68.5,115Zm4.24-5.17A5.43,5.43,0,0,1,76,110.89a1.69,1.69,0,0,0,1.87.1,1.67,1.67,0,0,0,.85-1.66,5.46,5.46,0,0,1,3.23-5.61,1.71,1.71,0,0,0,0-3.13A5.46,5.46,0,0,1,78.69,95,1.72,1.72,0,0,0,76,93.42a5.45,5.45,0,0,1-6.47,0A1.71,1.71,0,0,0,66.79,95a5.45,5.45,0,0,1-3.24,5.6,1.71,1.71,0,0,0,0,3.13,5.46,5.46,0,0,1,3.24,5.61,1.71,1.71,0,0,0,2.71,1.56A5.46,5.46,0,0,1,72.74,109.83Z"/><path class="cls-2" d="M37.51,141a1.49,1.49,0,0,1-1.32-.79A76.83,76.83,0,0,1,139.94,36.06a1.5,1.5,0,0,1-1.41,2.65A73.08,73.08,0,0,0,91,31.23,73.88,73.88,0,0,0,38.83,138.79,1.49,1.49,0,0,1,37.51,141Z"/><path class="cls-2" d="M104,180.71a77.09,77.09,0,0,1-46.45-15.57,1.5,1.5,0,1,1,1.81-2.39A73.82,73.82,0,0,0,176.58,91a1.5,1.5,0,0,1,2.95-.53A76.78,76.78,0,0,1,104,180.71Z"/></g></g></g></svg>