<svg xmlns="http://www.w3.org/2000/svg" viewBox="0 0 207.77 207.77"><defs><style>.cls-1{fill:#fff;}.cls-2{fill:#f4cb47;}</style></defs><title>method-sharing.complex</title><g id="Layer_2" data-name="Layer 2"><g id="Layer_7" data-name="Layer 7"><g id="method-sharing"><circle class="cls-1" cx="103.89" cy="103.89" r="103.89"/><path class="cls-2" d="M166,146c-.42.17-.8.3-1.17.42s-.76.3-1.18.42a15.79,15.79,0,0,1-5.21,1.31h0a.52.52,0,0,0-.46.38,3.33,3.33,0,0,0,.33,3.27,2.68,2.68,0,0,0,2.15,1.05,5.87,5.87,0,0,0,.79-.08,7,7,0,0,0,5-3.91,5,5,0,0,0,.63-2.9l0-.25Z"/><path class="cls-2" d="M90.71,86a.7.7,0,0,0,.29-.3c.55-1,1-2,1.6-3l.46-.93-2.22-1.38-.09.21c-.33.71-.71,1.38-1.09,2.06a15.77,15.77,0,0,0-1.89,4.53l-.09.47,1-.59C89.41,86.75,90.08,86.41,90.71,86Z"/><path class="cls-2" d="M116.34,108.22a.84.84,0,0,0,.5-.42.61.61,0,0,0-.08-.59c-.46-.8-.92-1.55-1.43-2.35l-.63-1-.42.17v4.92l.3-.09c.16-.08.37-.13.54-.21C115.58,108.51,116,108.35,116.34,108.22Z"/><path class="cls-2" d="M56.59,91.2c-.54-.25-1.09-.54-1.64-.84L47.68,86.5C42.56,83.72,37.39,81,32.26,78.22a1.41,1.41,0,0,0-.71-.13c-.38,0-.76,0-1.13.09l-1.6.12c-.72,0-1.47,0-2.23,0H24.83l.8.51.29.17c15,8.4,28.82,15.71,42.31,22.31,10.55,5.17,18.78,8.91,26.68,12.1a122.33,122.33,0,0,0,18.24,6.09,29.67,29.67,0,0,0,6.38.84h.3c.5,0,1-.08,1.51-.12.25,0,.46,0,.71-.09l.26,0-.89-3.66h-.16a11.48,11.48,0,0,0-1.31,0,18.51,18.51,0,0,1-2.69,0,42.78,42.78,0,0,1-8.61-2,165,165,0,0,1-18-6.39c-.68-.29-1.35-.59-2.06-.92l-.76-.34c.08-.13.13-1.09.17-1.22a7.09,7.09,0,0,1,.63-1.13A11.2,11.2,0,0,1,90,103.05a.79.79,0,0,1,.51,0c.5.26,1,.55,1.47.8s.71.38,1,.59a5.68,5.68,0,0,0,5.67,0c.46-.25.93-.5,1.43-.8l1.34-.75a.6.6,0,0,1,.47-.05,3,3,0,0,1,1.47,1.27c.63,1,1.3,2,2,3a16.94,16.94,0,0,1,2.19,4.2l.08.21.21-.12a3,3,0,0,0,.46-.3c.38-.21.72-.46,1.1-.67a.57.57,0,0,0,.25-.88c-.13-.25-.25-.46-.38-.72-.25-.46-.46-1-.76-1.43-1-1.68-.88-1.63-1.89-3.19-.17-.25-.29-.46-.46-.71a7.7,7.7,0,0,0-2.44-2.78,5.62,5.62,0,0,0,.89-2.9v-.75c0-1,0-2.06,0-3.07a5.65,5.65,0,0,0-2.82-4.79c-.88-.55-1.85-1.13-3-1.76a5.6,5.6,0,0,0-5.85,0c-1.13.63-2,1.13-2.89,1.64a5.52,5.52,0,0,0-2.86,3.94A13.13,13.13,0,0,0,87,95.32v1.05a7.25,7.25,0,0,0,1,4.67,8.76,8.76,0,0,0-2.48,3.36c-.08.17-.16,1.13-.25,1.3L59.62,92.76A4,4,0,0,1,61,91.2a.53.53,0,0,1,.59,0l1.77,1a4.15,4.15,0,0,1,.71.42,5.87,5.87,0,0,0,6.09,0l1.52-.88.67-.38c.8-.46,1-.42,1.64.17a5.15,5.15,0,0,1,.75.88c.21.29.42.63.63.92a1.45,1.45,0,0,0,.3.42l2.48,3.79,2.52-1.1L79.74,95c-.58-.89-1.17-1.77-1.76-2.65a7,7,0,0,1-.42-.67,7.85,7.85,0,0,0-2.4-2.74,4.12,4.12,0,0,1,.21-.5,5,5,0,0,0,.42-1.51c.13-1.51.13-3,.13-4.41a5.63,5.63,0,0,0-2.77-5c-1-.63-2-1.22-3.11-1.81a5.61,5.61,0,0,0-5.63,0c-1.18.63-2.23,1.22-3.2,1.81a5.31,5.31,0,0,0-2.69,4.07,22.39,22.39,0,0,0-.08,2.31v1.22A6.86,6.86,0,0,0,59.32,89l-2,2.35Zm33,4.88V94.31a3,3,0,0,1,1.51-2.73C92,91,93,90.45,94.28,89.78a3,3,0,0,1,3,0,30.9,30.9,0,0,1,3.24,1.89A3.08,3.08,0,0,1,102,94.4v3.32a3.18,3.18,0,0,1-1.55,2.81c-1,.63-2.15,1.26-3.2,1.81a3.07,3.07,0,0,1-2.94,0c-1-.55-2.1-1.09-3.15-1.77a3.12,3.12,0,0,1-1.6-2.81V96.54ZM73.31,84.48V85c0,.5,0,1-.08,1.55a2.92,2.92,0,0,1-1.51,2.19c-1,.59-2.06,1.22-3.15,1.8a3,3,0,0,1-3.07,0c-.76-.38-1.51-.84-2.23-1.22l-.67-.38a3.21,3.21,0,0,1-1.76-3V82.76a3.31,3.31,0,0,1,1.72-3c1-.54,1.93-1.13,2.94-1.64a3.07,3.07,0,0,1,3.15,0c.93.51,1.89,1.06,3,1.77a3.25,3.25,0,0,1,1.59,2.81V84.4Z"/><path class="cls-2" d="M118.36,98l.5.71.25-.46a1.62,1.62,0,0,0,.17-.29c.17-.34.38-.72.55-1,.38-.67.71-1.39,1.09-2.06a3.82,3.82,0,0,1,.25-.46,11.1,11.1,0,0,1,1.18-1.89,2.38,2.38,0,0,1,3.15-.59,6.57,6.57,0,0,0,6.51,0,2.79,2.79,0,0,1,3.83.92c.21.29.37.59.58.88a14.62,14.62,0,0,0,.93,1.35,1,1,0,0,1,.12,1.26,4.24,4.24,0,0,0-.42,1.38,6,6,0,0,0,0,2.57l0,.21,2-.72V99a5.21,5.21,0,0,1,1.26-3.32,3.47,3.47,0,0,1,5-.46,6.19,6.19,0,0,1,.88,1c.13.16.3.37.46.54l.09.13,1.85-.67-.09-.21a6.29,6.29,0,0,0-3.36-3.32,5.51,5.51,0,0,0-5.63.88c-.25-.34-.46-.72-.67-1a6.9,6.9,0,0,0-3.19-3.19l0,0L136,89a5.6,5.6,0,0,0,1.64-4V81.62a5.7,5.7,0,0,0-2.86-5.08c-1-.63-2-1.22-3-1.76a5.57,5.57,0,0,0-5.67,0c-1,.51-2,1.1-3.16,1.81a5.38,5.38,0,0,0-2.73,4.12,33.38,33.38,0,0,0-.08,4v.46a5.56,5.56,0,0,0,2,4.29s.08.08.12.08A6,6,0,0,0,119.66,92c-.67,1.22-1.3,2.44-1.93,3.66l-.21.38a.72.72,0,0,0,0,.67A14.81,14.81,0,0,0,118.36,98Zm10.42-21.47a3.7,3.7,0,0,1,1.68.46c1.17.67,2.06,1.18,2.9,1.68A3.29,3.29,0,0,1,135,81.46v2h0v.5c0,.51,0,1.06-.09,1.6a3,3,0,0,1-1.51,2.19c-1.05.63-2.14,1.26-3.07,1.76a3.1,3.1,0,0,1-3.19,0c-1-.55-1.93-1-2.9-1.6a3.28,3.28,0,0,1-1.72-2.94c0-1.13,0-2.27,0-3.36a3.24,3.24,0,0,1,1.68-2.9c.92-.54,1.93-1.09,2.94-1.68A3.21,3.21,0,0,1,128.78,76.54Z"/><path class="cls-2" d="M94.37,74.69c0,.09.08.13.12.21a1.18,1.18,0,0,0,.34.46l.46.3c1.3.8,2.6,1.64,4,2.39A5.57,5.57,0,0,0,105,78l1.59-.88.63-.38c.76-.42,1-.42,1.56.21l.5.63c.21.34.47.67.68,1l2.56,3.91L115,81.46l-.12-.21-.93-1.43c-.75-1.18-1.47-2.23-2.18-3.36-.38-.51-.76-1-1.18-1.52-.17-.21-.33-.37-.5-.58a6.93,6.93,0,0,0,.88-4.42V67.88A5.69,5.69,0,0,0,108,62.8c-.92-.55-1.85-1.09-2.94-1.72A5.69,5.69,0,0,0,99.37,61c-1.06.55-2.11,1.14-3.16,1.81a5.43,5.43,0,0,0-2.77,4.33c-.08,1-.08,1.89-.08,2.86v1A5.44,5.44,0,0,0,94.37,74.69Zm7.73-11.76a3.11,3.11,0,0,1,1.59.46c1.1.63,2.1,1.18,3,1.76a3.16,3.16,0,0,1,1.59,2.69v2h0v1.55a3.19,3.19,0,0,1-1.64,2.78c-.88.54-1.93,1.13-3,1.72a3.14,3.14,0,0,1-3.11,0c-1-.55-2-1.13-3-1.68a3.15,3.15,0,0,1-1.68-2.9v-3.4a3.21,3.21,0,0,1,1.68-2.86c.88-.5,1.93-1.14,3-1.72A3,3,0,0,1,102.1,62.93Z"/><path class="cls-2" d="M129.41,114.36c-.46.12-.93.21-1.35.33l-.21,0,1.1,3.62.33,0c.09,0,.17,0,.25,0a99.83,99.83,0,0,0,15.68-4.87,54.27,54.27,0,0,0,12.89-7.19c.85-.67,1.64-1.38,2.44-2,.34-.34.72-.64,1.05-.93l.17-.13-2.44-3-.16.17a39.08,39.08,0,0,1-9,6.64,80.85,80.85,0,0,1-17.77,6.8C131.42,113.89,130.42,114.1,129.41,114.36Z"/><path class="cls-2" d="M194.49,127.72l-.12-.3-1.22,1.26c-.8.84-1.64,1.68-2.44,2.52l-1.05,1.05-.92.93a.79.79,0,0,0-.3.55,4.3,4.3,0,0,0,.55,2.6,1.53,1.53,0,0,0,2.14.63,5.45,5.45,0,0,0,1.6-1.26,9.22,9.22,0,0,0,2.06-5A5.86,5.86,0,0,0,194.49,127.72Z"/><path class="cls-2" d="M53.23,116.58l-.42.25c-.38.26-.8.47-1.18.72-.88.54-1.76,1.09-2.64,1.68a4.22,4.22,0,0,1-4.54.13c-.29-.17-.59-.3-.84-.47l-.17-.08c-.84-.42-1.68-.88-2.56-1.3a5.21,5.21,0,0,1-3.24-4.33c-.08-.63-.17-1.3-.29-1.93a13.49,13.49,0,0,1-.25-3.87l.08-.59-3.87.8,0,.38v.29c0,.25,0,.51,0,.8.08.76.21,1.47.29,2.23l0,.17c.09.63.17,1.26.26,1.89a9,9,0,0,0,4.79,7c1.51.84,3,1.6,4.58,2.4a8.11,8.11,0,0,0,3.65.92,6.53,6.53,0,0,0,2.23-.38,14.57,14.57,0,0,0,2.44-1.21l.63-.38c.54-.34,1.09-.67,1.59-1l.68-.42.33-.21Z"/><path class="cls-2" d="M117.43,149.15l-.38.25c-.37.25-.75.5-1.17.8-.84.58-1.68,1.17-2.52,1.8a4.2,4.2,0,0,1-4.54.38c-.3-.13-.59-.25-.84-.38l-.21-.08c-.84-.38-1.72-.8-2.61-1.18a5.11,5.11,0,0,1-3.44-4.16c-.09-.63-.25-1.3-.38-1.89a12.15,12.15,0,0,1-.46-3.86l0-.59-3.82,1,0,.37c0,.09,0,.21,0,.3,0,.25,0,.5.08.8.13.71.3,1.47.42,2.18s.26,1.35.38,2a9,9,0,0,0,5.17,6.76c1.56.76,3.11,1.43,4.71,2.15a8.05,8.05,0,0,0,3.69.71,6.71,6.71,0,0,0,2.19-.5,11.28,11.28,0,0,0,2.31-1.35c.21-.12.42-.29.63-.42a17.19,17.19,0,0,0,1.55-1.09c.21-.17.43-.3.64-.46l.29-.21Z"/><path class="cls-2" d="M23.57,78l0,1.93c0,1.26.08,2.57.12,3.83L23.82,86c.08,2.94.21,6,.29,9a3,3,0,0,0,1.05,2.22c2.44,1.68,4,2.69,6.64,4.41a2.74,2.74,0,0,0,3.78-.16c.17-.13.34-.3.47-.42a8.85,8.85,0,0,1,2.64-1.85,9,9,0,0,1,8.36.38c1.64,1,3.37,1.93,5.09,2.85a10,10,0,0,1,5.5,8.15c.17,1.43.38,2.82.63,4.25A5.05,5.05,0,0,0,61,118.6c3.58,1.85,7.1,3.7,10.68,5.5l23.53,11.35s2.6.75,3.74-.38l.46-.46a9.58,9.58,0,0,1,2.52-2,9,9,0,0,1,8.36-.08c1.68.84,3.45,1.76,5.25,2.56a10,10,0,0,1,5.93,7.81c.25,1.39.54,2.78.84,4.21a5,5,0,0,0,2.94,3.61c3.65,1.64,7.9,3,11.55,4.66,3.83,1.56,7.69,3.07,11.52,4.63a5.91,5.91,0,0,0,3.4.12A31.47,31.47,0,0,0,159,158c2-.84,4.11-1.6,6.13-2.35.88-.34,1.76-.63,2.6-1l2.95-1.09c2.85-1.05,5.75-2.15,8.65-3.24a3.18,3.18,0,0,0,1.22-.92c3-3.45,6-6.85,8.78-10.13a1.86,1.86,0,0,1,1.43-.8,4,4,0,0,0,2.56-1.47,2,2,0,0,0,.34-.38l.59-.63,0,.59a8.58,8.58,0,0,1-2.06,5.13c-3.24,3.78-6.26,7.27-9.21,10.71a2.43,2.43,0,0,1-1.09.76c-2.31.88-4.66,1.76-7,2.65-4.62,1.72-9.37,3.53-14,5.37a43.43,43.43,0,0,1-7.1,2.32c-1,.21-1.93.29-2.9.42l-.54,0h-.42a5.26,5.26,0,0,1-1.73-.34c-4.28-1.72-8.57-3.4-12.81-5.08h0l-.34-.13s0,0-.08,0c-3.78-1.51-8.07-2.61-11.43-4.2a9,9,0,0,1-5.13-6.56c-.12-.67-.25-1.3-.37-2-.21-1-.38-2.06-.63-3.07a5.25,5.25,0,0,0-2.86-3.65c-1.89-1-4-2-6.43-3.16a4.78,4.78,0,0,0-5.21.89l-.55.54c-.33.34-.67.72-1.05,1-2.22,2-4.7,2.1-8.06.72l-24-11.68c-.13,0-.21-.13-.34-.17-3.23-1.68-6.6-3.4-9.87-5.17a8.82,8.82,0,0,1-4.75-6.85c-.08-.67-.21-1.34-.3-2-.12-1-.29-2.06-.46-3.11a5.35,5.35,0,0,0-2.64-3.83C49,105.11,47,104,44.58,102.67a4.75,4.75,0,0,0-5.26.63,5.36,5.36,0,0,0-.54.51c-.38.34-.72.67-1.1,1a6.55,6.55,0,0,1-8,.16l-2.4-1.72c-1.47-1-2.35-1.6-3.69-2.65-.26-.16-.51-.37-.76-.54a6.27,6.27,0,0,1-2.44-5c-.12-3.91-.25-7.86-.37-11.68-.05-1.6-.09-3.24-.13-4.84a5.5,5.5,0,0,0,0-.79l0-.68Z"/><path class="cls-2" d="M37.47,75.24a63.68,63.68,0,0,1,26-4.37,59,59,0,0,1,16.94,3.28,66.92,66.92,0,0,1,26.42,17.56,87.72,87.72,0,0,1,13,18.15,59.39,59.39,0,0,1,4.91,11,8.37,8.37,0,0,0,2.65,3.87l8.19,6.8,4.42,3.66,3.78,3.15c2.31,1.93,4.66,3.91,7,5.84a10.82,10.82,0,0,0,7,2.69,11.23,11.23,0,0,0,4-.76c5.93-2.18,12-4.41,17.78-6.59l1.09-.42a2.49,2.49,0,0,0,1-.64c3.37-3.36,6.73-6.68,10.05-10a8.5,8.5,0,0,0,2.48-5.92v-.25a2.05,2.05,0,0,0,0-.55,7.76,7.76,0,0,0-3.82-6.18c-3.61-2.18-13.28-8.27-18.45-11.55-1.55-1-2.64-1.68-3.1-2a17,17,0,0,1-5.09-4.62c-1.85-2.69-3.53-5-5.08-7.1A129,129,0,0,0,140,70a74.5,74.5,0,0,0-15-10.17,56.82,56.82,0,0,0-26.9-6A65.76,65.76,0,0,0,86.47,55c-2.78.54-5.55,1.22-8.24,1.89l-1.43.33A9.76,9.76,0,0,1,70,56.62c-1.43-.67-3-1.26-4.41-1.8L64,54.19a5.25,5.25,0,0,0-2.61-.26l-4.83.68c-4.5.63-8.95,1.3-13.45,1.93a1.61,1.61,0,0,1-.46,0,4.19,4.19,0,0,0-1.72.46c-5.46,3.58-11,7.27-16.39,10.84l-4.2,2.78a2.84,2.84,0,0,0-1.39,2.9A2.89,2.89,0,0,0,21.17,76,25,25,0,0,0,37.47,75.24Zm-12-3.32,4.49-3c4.08-2.68,8.28-5.5,12.44-8.19a3.08,3.08,0,0,1,1.3-.33l.29,0,10.51-1.51,4.24-.59c1-.17,2.1-.29,3.15-.42a2.39,2.39,0,0,1,1.1.13c.42.17.79.29,1.22.46,1.42.55,2.94,1.09,4.32,1.77a13.47,13.47,0,0,0,9.16.88l1.68-.42c2.65-.63,5.38-1.3,8.11-1.81a56.71,56.71,0,0,1,28,1.35,60.6,60.6,0,0,1,19,10.12,103.48,103.48,0,0,1,15.88,15.51,158.78,158.78,0,0,1,10.33,13.69,19.26,19.26,0,0,0,5.68,5.42c1.8,1.14,17.85,11.35,22,13.79a4.61,4.61,0,0,1,1.09,7,6.64,6.64,0,0,1-.79.8l-1.77,1.76c-2.48,2.48-5,5-7.48,7.44a2.37,2.37,0,0,1-.8.51l-2.77,1c-5.08,1.85-10.34,3.74-15.5,5.59a6.76,6.76,0,0,1-7-1.3c-3-2.44-6-4.92-8.86-7.35L140,130.62c-1-.89-2.15-1.77-3.2-2.65-2.26-1.89-4.62-3.82-6.93-5.76a6.52,6.52,0,0,1-2.23-3.44,30.93,30.93,0,0,0-2.6-6.64,93.49,93.49,0,0,0-13.7-20.88A73.13,73.13,0,0,0,88.69,73.56a62.94,62.94,0,0,0-19.28-5.93A64.58,64.58,0,0,0,61,67h-.25a69,69,0,0,0-24.62,4.71,22.86,22.86,0,0,1-10.42,1.47c-.42,0-.63-.21-.71-.5A.75.75,0,0,1,25.42,71.92Z"/><path class="cls-2" d="M179.2,105.39a1.5,1.5,0,0,1-1.5-1.5A73.82,73.82,0,0,0,49.94,53.5a1.5,1.5,0,1,1-2.19-2,76.82,76.82,0,0,1,133,52.44A1.5,1.5,0,0,1,179.2,105.39Z"/><path class="cls-2" d="M103.89,180.7a76.89,76.89,0,0,1-76.68-72.11,1.5,1.5,0,0,1,3-.18A73.82,73.82,0,0,0,144,165.86a1.51,1.51,0,0,1,2.08.45,1.49,1.49,0,0,1-.45,2.07A76.49,76.49,0,0,1,103.89,180.7Z"/></g></g></g></svg>