<svg xmlns="http://www.w3.org/2000/svg" viewBox="0 0 234.03 234.03"><defs><style>.cls-1{fill:#f4cb47;}.cls-2{fill:none;}</style></defs><title>providing-sustainable-blockchain</title><g id="Layer_2" data-name="Layer 2"><g id="Layer_6" data-name="Layer 6"><g id="providing-sustainable-blockchain"><g id="Layer_1-2" data-name="Layer 1"><path class="cls-1" d="M121,48a10.38,10.38,0,0,0-10.37,0l-5,2.9a10.41,10.41,0,0,0-5.19,9V65.7a2.21,2.21,0,1,0,4.42,0V59.89a6,6,0,0,1,3-5.15l5-2.9a6,6,0,0,1,6,0A2.21,2.21,0,0,0,121,48Z"/><path class="cls-1" d="M170,94.57l-8.08-4.67a6.86,6.86,0,0,0-6.82,0L147,94.57a6.82,6.82,0,0,0-3.41,5.91v7.75l-6-3.47a6.79,6.79,0,0,0-6.81,0l-4,2.29v-8.8H127A12,12,0,0,0,133,96.62l16.09-9.28a12.19,12.19,0,0,0,6.07-10.52V58.25a12.19,12.19,0,0,0-6.07-10.52l-5.54-3.18V38.66a12.19,12.19,0,0,0-6.07-10.52l-16.09-9.28a12.38,12.38,0,0,0-12.14,0L93.18,28.14a12.16,12.16,0,0,0-6.06,10.52v5.6l-6,3.48A12.16,12.16,0,0,0,75,58.26V76.83a12.16,12.16,0,0,0,6.06,10.52l16.09,9.28a12.16,12.16,0,0,0,7.08,1.59v24l-1-.55a6.86,6.86,0,0,0-6.82,0l-8.08,4.67A6.85,6.85,0,0,0,85,132.2V140l-6-3.46a6.8,6.8,0,0,0-6.84,0L64,141.2a6.82,6.82,0,0,0-3.41,5.94v9.33A6.82,6.82,0,0,0,64,162.38L72.13,167a6.84,6.84,0,0,0,6.81,0L87,162.34a6.82,6.82,0,0,0,3.41-5.91v-7.79l6,3.44a6.81,6.81,0,0,0,6.82,0l1-.55v4.7l-5,2.65a8,8,0,0,0-4.18,7V170l-3.89,2.36a8,8,0,0,0-3.84,6.81v1.46l-5.51.07a8.3,8.3,0,0,0-4.9,1.6,8,8,0,0,0-2.65,9.19,7.83,7.83,0,0,0,7.47,5.19l13.69-.18a8,8,0,0,0,7.86-8v-4.83l3.29-2a7.94,7.94,0,0,0,.89-.63v.59a8,8,0,0,0,4,6.92l5.52,3.14V193l-3.17,1.77a8,8,0,0,0-4.06,6.94v6.82a8,8,0,0,0,7.71,8.19h.25a8,8,0,0,0,8-8V206.4l3.14-1.78a8,8,0,0,0,4.06-6.93V187.08a8.91,8.91,0,0,0-.1-1.26l2.15,1.2a7.85,7.85,0,0,0,3.88,1h11.4a8.12,8.12,0,0,0,8.11-6.76,8,8,0,0,0-7.88-9.16h-9.53l-4.13-2.22V166a8,8,0,0,0-4.19-7l-5.68-3.11V132.94l4,2.29a6.86,6.86,0,0,0,6.82,0l8.08-4.67a6.82,6.82,0,0,0,3.41-5.91v-7.73l6,3.47a6.86,6.86,0,0,0,6.82,0l8.08-4.67a6.85,6.85,0,0,0,3.42-5.91v-9.33A6.86,6.86,0,0,0,170,94.57Zm-96.58,68.1-7.14-4.12a2.41,2.41,0,0,1-1.24-2.11V148l7.76,4.58a1.19,1.19,0,0,1,.58,1Zm2.31-13.35a5.35,5.35,0,0,0-.67-.47l-7.59-4.48,6.89-4a2.39,2.39,0,0,1,2.4,0l7.47,4.32-7.83,4.2a5.07,5.07,0,0,0-.67.39Zm10.31,7.15a2.42,2.42,0,0,1-1.21,2.08l-7,4v-8.93a.73.73,0,0,1,.32-.69l7.88-4.25Zm11.65-8.72-7.14-4.15a2.41,2.41,0,0,1-1.2-2.08v-8.37l7.76,4.58a1.18,1.18,0,0,1,.58,1ZM100,134.4a6.2,6.2,0,0,0-.67-.47l-7.59-4.48,6.89-4a2.38,2.38,0,0,1,2.39,0l7.48,4.32L100.7,134a5.57,5.57,0,0,0-.68.37Zm2.1,13.27v-8.92a.74.74,0,0,1,.32-.69l7.88-4.25v7.71a2.4,2.4,0,0,1-1.19,2.08Zm21-54.83-.67-.37v66.08l8,4.37a3.5,3.5,0,0,1,1.84,3.06v6.51l7.4,4.06h10.73a3.48,3.48,0,0,1,3.2,2,3.67,3.67,0,0,1-.26,3.5,3.54,3.54,0,0,1-2.94,1.58H138.76a3.53,3.53,0,0,1-1.77-.45l-10-5.53a3.53,3.53,0,0,1-1.83-3.1v-6.46l-2.89-1.62-2.74,1.58v9.82a3.63,3.63,0,0,0,1.82,3.15l5.22,3a3.53,3.53,0,0,1,1.77,3.07v10.61a3.5,3.5,0,0,1-1.77,3.08l-5.43,3.06v4.84a3.54,3.54,0,0,1-5.78,2.89,3.55,3.55,0,0,1-1.3-2.74v-7.07a3.55,3.55,0,0,1,1.77-3.09l5.43-3.05v-6.48l-7.75-4.42a3.57,3.57,0,0,1-1.77-3.07V168.13l-2.55-1.53-2.6,1.41v6.47a3.54,3.54,0,0,1-1.71,3l-6.19,3.7v7.32a3.55,3.55,0,0,1-3.49,3.54l-13.61.17a3.4,3.4,0,0,1-3.17-2,3.63,3.63,0,0,1,.21-3.54,3.52,3.52,0,0,1,2.93-1.58L91.68,185v-5.82a3.55,3.55,0,0,1,1.67-3l6-3.64V166a3.53,3.53,0,0,1,1.86-3.11l7.36-4V149l2.71-1.57a6.85,6.85,0,0,0,3.42-5.91v-9.33a6.87,6.87,0,0,0-3.42-5.91l-2.71-1.56V96.87l5.31-2.76a2.21,2.21,0,0,0-1.89-4l-.16.08-6.19,3.22a7.81,7.81,0,0,1-6.32-.61l-16-9.29a7.73,7.73,0,0,1-3.86-6.69V58.25a7.73,7.73,0,0,1,3.86-6.69l8.24-4.76V38.66A7.75,7.75,0,0,1,95.39,32l16.09-9.28a7.86,7.86,0,0,1,7.72,0L135.29,32a7.75,7.75,0,0,1,3.85,6.69V47.1l7.76,4.47a7.77,7.77,0,0,1,3.86,6.69V76.83a7.78,7.78,0,0,1-3.86,6.69L130.81,92.8a7.81,7.81,0,0,1-7.73,0Zm9,38-5.24-3v-9.73l4.65,2.74a1.19,1.19,0,0,1,.58,1Zm2.32-13.35a6.32,6.32,0,0,0-.68-.47L126.84,113v-.83l6.19-3.54a2.44,2.44,0,0,1,2.4,0l7.47,4.32-7.81,4.23a4.09,4.09,0,0,0-.7.33Zm10.26,7.13a2.42,2.42,0,0,1-1.21,2.08l-7,4v-8.9a.73.73,0,0,1,.32-.69l7.88-4.24ZM156.34,116l-7.14-4.12a2.41,2.41,0,0,1-1.2-2.08v-8.38l7.75,4.58a1.18,1.18,0,0,1,.59,1Zm2.31-13.35a5.35,5.35,0,0,0-.67-.47l-7.59-4.48,6.89-4a2.39,2.39,0,0,1,2.4,0l7.47,4.32-7.81,4.22a5.73,5.73,0,0,0-.64.39ZM169,109.81a2.39,2.39,0,0,1-1.21,2.08l-7,4V107a.73.73,0,0,1,.32-.69L169,102.1Z"/></g><rect class="cls-2" width="234.03" height="234.03"/></g></g></g></svg>