<svg xmlns="http://www.w3.org/2000/svg" viewBox="0 0 207.77 207.77"><defs><style>.cls-1{fill:#f3cb48;}.cls-2{fill:none;}</style></defs><title>recycling</title><g id="Layer_2" data-name="Layer 2"><g id="Layer_7" data-name="Layer 7"><g id="recycling"><g id="Layer_1-2" data-name="Layer 1"><path class="cls-1" d="M71.59,92.22,77.84,104l-1.76,2.77L62.82,127.55a24.76,24.76,0,0,0-1.52,2.57L51,111.9a5.9,5.9,0,0,1-1-2.66,8.52,8.52,0,0,1,1.57-3.76l5.63-8.74,2.54-4-.52-.3,12.38-.31m2.71-4.56-25.64.62a1.6,1.6,0,0,0-1.73,1.46,1.29,1.29,0,0,0,0,.34c0,.26.36.62,1.09,1.09l5.31,3.21-5.63,8.75a12.65,12.65,0,0,0-2.34,6.17,10.12,10.12,0,0,0,1.52,4.93L64.32,144.6a25.77,25.77,0,0,1-.62-5.47A16.47,16.47,0,0,1,66.59,130l13.29-20.87,5.24,3.21c.88,0,1.32-.36,1.32-1.09a4.8,4.8,0,0,0-.5-1.93L74.3,87.59Z"/><path class="cls-1" d="M83.91,55.29c3.62,0,7.82,4.74,11.93,13.43L85.33,85l-6.79-4.56-9.33-6.21,11.25-18c.34-.55,1.66-.89,3.45-.89m0-4.56q-5.47,0-7.34,3L63,75.55l13,8.74,10.65,7.14,14.39-22.29Q93,50.72,83.91,50.72Z"/><path class="cls-1" d="M98.11,127.48v19.77H74.92c-.71,0-2.63,0-2.63-6.62a13.17,13.17,0,0,1,1.52-6.08,72.41,72.41,0,0,1,4.52-7.07H98.11m4.56-4.57H75.94a97.64,97.64,0,0,0-6.17,9.54,17.8,17.8,0,0,0-2.09,8.14q0,11.17,7.2,11.18h27.79V122.91Z"/><path class="cls-1" d="M118.31,52.14c6.72,0,8.74,2.49,9.68,4.36l5.1,10.24,2,3.93,1.09-.51-6.57,11.17-13.4-1.07-1.43-3-6.42-13.44a64.48,64.48,0,0,0-6.9-11.69h16.87m0-4.56H86.18a25.62,25.62,0,0,1,8,3.51q4.93,4,10,14.74l6.4,13.45-4.76,2.27a1.24,1.24,0,0,0-.7,1.24c0,.78.49,1.23,1.52,1.33l25.41,2,12.35-20.79A4.63,4.63,0,0,0,145,63c0-.94-.31-1.41-.94-1.41a5.26,5.26,0,0,1-1.25.47l-5.63,2.59-5.15-10.24q-3.45-6.87-13.69-6.87Z"/><path class="cls-1" d="M150.9,126.2l-10.49,19.09c-.63,1.16-1.62,2.22-4.57,2.22H120.16v1.08l-6.89-10.65,6.51-11.16H143a54.73,54.73,0,0,0,7.89-.5m11.49-11.41a20.06,20.06,0,0,1-8.67,6.08,35.16,35.16,0,0,1-10.65,1.25H123V118c0-1.61-.39-2.42-1.18-2.42a1.38,1.38,0,0,0-1.24.63l-12.67,22L121,158.34c.82,1.27,1.55,1.9,2.19,1.9a1,1,0,0,0,.38-.07c.73-.22,1.1-.6,1.1-1.18v-6.92h11.1q6.09,0,8.6-4.56l18-32.72Z"/><path class="cls-1" d="M145.4,86.36l11.89,18.16a2.51,2.51,0,0,1,.55,1.43c0,1.45-1.08,3-3.24,4.75a10.09,10.09,0,0,1-6.09,2.72h-9.34L128.68,96.08l6.69-3.89,10-5.83m1.52-6.08-13.69,8L122.56,94.5,136.79,118h12a14.34,14.34,0,0,0,8.69-3.79q4.92-3.9,4.93-8.29a7,7,0,0,0-1.33-4L146.78,80.25Z"/></g><rect class="cls-2" width="207.77" height="207.77"/></g></g></g></svg>