<svg xmlns="http://www.w3.org/2000/svg" viewBox="0 0 508.71 298.11"><defs><style>.cls-1{fill:#f3cb48;}.cls-2{fill:#fefefe;}.cls-3{fill:#f3cb49;}.cls-4{fill:#f4cb47;}</style></defs><title>retiring.complex</title><g id="Layer_2" data-name="Layer 2"><g id="Layer_8" data-name="Layer 8"><g id="retiring"><g id="Layer_1-2" data-name="Layer 1"><path class="cls-1" d="M93,76.51a55.06,55.06,0,0,1,20-8.23c1.56-.31,3.12-.54,4.66-.71a68.61,68.61,0,0,1,9.21-8.07,65.87,65.87,0,0,0-8.66.21A64.65,64.65,0,0,0,83.75,73.37,76.7,76.7,0,0,1,93,76.51Z"/><path class="cls-2" d="M127.05,158.37a6.4,6.4,0,1,0,0,.16Z"/><path class="cls-2" d="M120.5,142.28a6.45,6.45,0,1,0-.65,0A4.73,4.73,0,0,0,120.5,142.28Z"/><path class="cls-1" d="M69.47,83.07c2.37.73,4.86.75,7.29,1.25a64.34,64.34,0,0,1,43.6,32.12c.52.94.59,1.41-.53,1.89a32.76,32.76,0,0,0-4.52,2.34c-1.06.66-1.41.26-1.91-.64A55.18,55.18,0,0,0,83.11,94.15a56.25,56.25,0,1,0,30,80.64c1-1.85,1-1.85,3-.85,1.32.69,2.64,1.42,4,2,.83.38.93.71.48,1.55a63.88,63.88,0,0,1-24.24,25,61.94,61.94,0,0,1-37.76,8.32A63.16,63.16,0,0,1,2.46,164c-5.84-21.69-1.25-41.56,13.3-58.69A62.38,62.38,0,0,1,54.59,83.78a20.31,20.31,0,0,0,4.31-.71Z"/><path class="cls-3" d="M127.05,158.37a6.46,6.46,0,1,1,0-.07Z"/><path class="cls-1" d="M120.5,142.28a6.43,6.43,0,1,1,6.5-6.41,6.3,6.3,0,0,1-6.2,6.41Z"/><path class="cls-1" d="M117.56,231.16c-1.56-.17-3.1-.42-4.66-.71a55.14,55.14,0,0,1-24-11.17,75.4,75.4,0,0,1-9.13,2.58,64.81,64.81,0,0,0,47,17.35A67.75,67.75,0,0,1,117.56,231.16Z"/><path class="cls-1" d="M414.78,217.32a55.7,55.7,0,0,1-27.12,17.43,92.63,92.63,0,0,1-7.31,9.33,63.48,63.48,0,0,0,42.34-23.83A76.53,76.53,0,0,1,414.78,217.32Z"/><path class="cls-1" d="M381.85,57.15a88.77,88.77,0,0,1,7.31,9.61A55.34,55.34,0,0,1,410.31,79.1a76,76,0,0,1,7.83-3.46A63.71,63.71,0,0,0,381.85,57.15Z"/><path class="cls-2" d="M508.69,158.37a6.4,6.4,0,1,0,0,.16Z"/><path class="cls-2" d="M502.22,142.28a6.45,6.45,0,1,0-.65,0A4.68,4.68,0,0,0,502.22,142.28Z"/><path class="cls-1" d="M451.13,83.07c2.37.73,4.86.75,7.29,1.25A64.35,64.35,0,0,1,502,116.44c.52.94.58,1.41-.54,1.89a33.69,33.69,0,0,0-4.54,2.36c-1.05.65-1.4.26-1.9-.64a55.25,55.25,0,0,0-30.29-25.88,56.25,56.25,0,1,0,29.94,80.64c1.06-1.86,1.06-1.86,3-.85,1.32.69,2.63,1.42,4,2,.83.38.94.71.49,1.54a63.93,63.93,0,0,1-24.25,25,61.89,61.89,0,0,1-37.75,8.31,63.15,63.15,0,0,1-56-46.9c-5.83-21.69-1.24-41.56,13.3-58.69a62.38,62.38,0,0,1,38.83-21.49,20.21,20.21,0,0,0,4.31-.71Z"/><path class="cls-3" d="M508.69,158.37a6.46,6.46,0,1,1,0-.07Z"/><path class="cls-1" d="M502.22,142.28a6.43,6.43,0,1,1,6.49-6.41,6.29,6.29,0,0,1-6.2,6.41Z"/><path class="cls-4" d="M383.74,192.25a68.37,68.37,0,0,1-60.61,61.91,77,77,0,0,0,7.77-33.84,44.7,44.7,0,0,0-.19-5.09l-9,5.19a67.82,67.82,0,0,1-9.22,34.09,67.88,67.88,0,0,1-32.45-10l-8.92,5.19a77,77,0,0,0,35.38,13.58,68.17,68.17,0,0,1-107.93-2.37,76.93,76.93,0,0,0,35.3-12.25l-9.11-5.19A67.87,67.87,0,0,1,193,252.1a67.79,67.79,0,0,1-7.79-31.43l-9-5.2c-.1,1.73-.17,3.32-.17,5a77.15,77.15,0,0,0,6.48,31,68.41,68.41,0,0,1-58.37-57.67,77.93,77.93,0,0,1-7.68,8.66,77.47,77.47,0,0,0,71.14,58.88,77.46,77.46,0,0,0,130,2.65,77.48,77.48,0,0,0,74-62.21A76.72,76.72,0,0,1,383.74,192.25Z"/><path class="cls-4" d="M139.19,158.3a77.06,77.06,0,0,1-2.46,11,77.76,77.76,0,0,0,21.51,15.42V174.36A68.85,68.85,0,0,1,139.19,158.3Z"/><path class="cls-4" d="M182.85,47.34a77.14,77.14,0,0,0-6.1,30.15c0,2.22.12,4.42.3,6.59l8.93-5.2V77.46a67.85,67.85,0,0,1,7.26-30.71,67.83,67.83,0,0,1,32.63,9.11l9-5.19a76.91,76.91,0,0,0-36.26-12.8,68.14,68.14,0,0,1,109.52-2.06,77,77,0,0,0-37.8,13.85l8.93,5.2A67.86,67.86,0,0,1,314,44.76a67.93,67.93,0,0,1,8.38,32.75v2.2l8.89,5.2c.22-2.41.36-4.85.36-7.33a77.14,77.14,0,0,0-6.93-32.07,68.4,68.4,0,0,1,58,58.2,77.42,77.42,0,0,1,7.57-9.28,77.5,77.5,0,0,0-70.85-58.76,77.43,77.43,0,0,0-131.62,2,77.51,77.51,0,0,0-70.18,55.42,77.4,77.4,0,0,1,7.36,8.52A68.44,68.44,0,0,1,182.85,47.34Z"/><path class="cls-4" d="M369.09,143.82a76.16,76.16,0,0,1,1.49-12.12,77.77,77.77,0,0,0-21.89-15.4v10.4A68.76,68.76,0,0,1,369.09,143.82Z"/><path class="cls-4" d="M371.38,166a75.78,75.78,0,0,1-2-11.86,68.92,68.92,0,0,1-20.66,18.13v10.39A77.87,77.87,0,0,0,371.38,166Z"/><path class="cls-4" d="M139.66,139.72a68.71,68.71,0,0,1,18.58-15.4V113.93a78,78,0,0,0-20.56,14.41A75.68,75.68,0,0,1,139.66,139.72Z"/><path class="cls-4" d="M310.8,92.35c-4.92,3.31-9.68,6.53-14.48,9.7a1.51,1.51,0,0,1-1.28-.14q-9.5-5.5-19-11.06L258.77,80.68l-1-.52L227.1,137l78.71,70.84L296,213.37,258.5,234.61a1.76,1.76,0,0,1-2.07,0q-36.66-21.17-73.37-42.28a1.84,1.84,0,0,1-1.06-1.87V105.79a1.72,1.72,0,0,1,.95-1.73q36.77-21.21,73.52-42.5a1.49,1.49,0,0,1,1.73-.1Q284,76.61,309.88,91.73Zm-25,107.6-62.44-56.18L201.62,184l.92.59q27,15.58,54.1,31.31a1.4,1.4,0,0,0,1.65,0q9-5.19,18.1-10.49Zm-40.25-113-.17-.17-45.22,26.11,21.06,18.95Zm-47.32,87.33c.3-.45.42-.6.51-.76q9.23-17.07,18.48-34.13a.93.93,0,0,0-.19-1.29L217,138l-18-16.19c-.22-.18-.46-.34-.7-.5Z"/></g></g></g></g></svg>