<svg xmlns="http://www.w3.org/2000/svg" viewBox="0 0 207.77 207.77"><defs><style>.cls-1{fill:none;}.cls-2{fill:#f4cb46;}</style></defs><title>retiring-cc</title><g id="Layer_2" data-name="Layer 2"><g id="Layer_7" data-name="Layer 7"><g id="retiring-cc"><rect class="cls-1" width="207.77" height="207.77"/><path class="cls-2" d="M125,158.22H117.6l-.72,4.52H125a2.27,2.27,0,1,1,0,4.54H23.1a2.27,2.27,0,0,1,0-4.54H33.69l.72-4.52H23.1a6.8,6.8,0,1,0,0,13.59H125a6.8,6.8,0,1,0,0-13.59Z"/><path class="cls-2" d="M122.12,106.1l-9.79,61.18h3.82l9.61-60A25.06,25.06,0,0,1,122.12,106.1Z"/><polygon class="cls-2" points="104.8 91.32 46.6 82.01 32.96 167.28 36.78 167.28 49.73 86.33 101.86 94.66 104.8 91.32"/><path class="cls-2" d="M191.05,83.89Q180.9,69.06,170.76,54.21L160.47,39.15l-1.23-1.8-.62-.9c-.08-.12-.18-.38-.3-.45s-.31,0-.53.2l-3.85,2.63L146.37,44c-4.42,3-8.82,6.07-13.28,9,1.4,2,2.78,3.94,4.14,5.93-4.38.62-8.66,1.81-13,2.82s-8.67,2.1-13,3.34c-3.66,1.05-7.52,2-10.72,4.16s-6,5.45-8.71,8.36c-3.25,3.5-6.77,6.71-10.25,10,1.33.21,2.68.4,4,.64.5.09.75.22,1.13-.15s.89-.91,1.35-1.35c2-1.92,4-3.81,5.9-5.83s3.68-4,5.63-5.89a25.54,25.54,0,0,1,3-2.59,14.17,14.17,0,0,1,3.44-1.71,148.43,148.43,0,0,1,16.42-4.68c4.75-1.15,9.53-2.2,14.29-3.21l6.67-1.42-4.15-6.06a7,7,0,0,1-.8-1.18s-.12-.13-.12-.18.72-.49.86-.59l1.09-.74,7.93-5.42,9-6.13,16.88,24.69,8.45,12.36,2.08,3c.3.45.6.92.93,1.35.18.23.54.52.6.81s-.23.45-.49.61c-.5.31-1,.65-1.45,1l-3.08,2.11-13.74,9.39-5.06-7.4L154.3,77.26l-1.86-2.72-2.79,2c-.32.22-.27.11-.16.39a6.25,6.25,0,0,0,.81,1.19l2.46,3.6.94,1.37c.31.46.3.46.17,1.08a26.12,26.12,0,0,1-6.63,13,23.77,23.77,0,0,1-13.86,6.48,19.84,19.84,0,0,1-8.5-.56,32.33,32.33,0,0,1-3.64-1.67c-1.38-.64-2.44.34-3.55,1.12-4.27,3-8.54,6.49-13.56,8.08a28.49,28.49,0,0,1-4.1.88,5.12,5.12,0,0,1-1.83.09,3.2,3.2,0,0,1-1.51-.94c-1.08-1-3.19-2-3.51-3.58-.21-1,.85-1.57,1.55-2.06,1.15-.81,2.35-1.53,3.55-2.28a35.3,35.3,0,0,0,3.49-2.33,21.62,21.62,0,0,0,2.55-2.85c3.91-4.44,7.72-9,11.75-13.33a26.6,26.6,0,0,1,13.61-7.91,26.14,26.14,0,0,1,4.31-.6,6,6,0,0,0-5-1.86A21.16,21.16,0,0,0,122.79,75c-4.49,1.49-8,5-11.06,8.44-3.52,3.93-7.06,7.86-10.45,11.89A14.81,14.81,0,0,1,99,97.76c-1,.71-2,1.29-3,1.94s-2.17,1.45-3.27,2.16a8.27,8.27,0,0,0-2.42,2.06,5.28,5.28,0,0,0-.3,5.47,8.23,8.23,0,0,0,2.19,2.4c.91.77,1.81,1.56,2.74,2.31,1.88,1.54,4.19,1.35,6.46,1a25.82,25.82,0,0,0,7.18-2.18,45,45,0,0,0,6.22-3.81c1-.71,2.05-1.41,3.08-2.11l1.55-1.06c.28-.19.76-.7,1.12-.66s.69.39.94.52a11.27,11.27,0,0,0,1.84.75,19,19,0,0,0,3.56.84,28.33,28.33,0,0,0,7.64-.1A28,28,0,0,0,147.5,102a26.57,26.57,0,0,0,8.36-11.3,7.59,7.59,0,0,0,1-3l1.37,2,1,1.5a5.51,5.51,0,0,1,.65,1,4.88,4.88,0,0,1-.32,2.2,14.68,14.68,0,0,1-1,2.67,18.31,18.31,0,0,1-3.09,4.54,28.45,28.45,0,0,1-9.24,6.44c-4.2,1.92-8.77,2.76-13,4.59a41.92,41.92,0,0,0-6.79,3.66c-.72.48-2.13,1.09-2.45,1.93a11.23,11.23,0,0,0-.32,2l-.34,2.1c3.12-1.8,6.2-3.74,9.45-5.31a58.38,58.38,0,0,1,9.6-3.52,34.18,34.18,0,0,0,15.41-8.82,20,20,0,0,0,3.08-4,12.13,12.13,0,0,0,1-2.56,5.13,5.13,0,0,0,.41-2.39l2.13,3.12L166,101c.07.11.33.64.47.68s.36-.21.46-.28c5.22-3.54,10.43-7.13,15.66-10.7l5.83-4c.8-.55,1.59-1.12,2.42-1.63.18-.11.58-.28.65-.49S191.18,84.08,191.05,83.89Z"/><path class="cls-2" d="M63.48,126a5.5,5.5,0,0,1-2.75-.75A5.42,5.42,0,0,1,58,119.9a1.71,1.71,0,0,0-1-1.75,5.48,5.48,0,0,1,0-10,1.7,1.7,0,0,0,1-1.74,5.48,5.48,0,0,1,8.68-5,1.71,1.71,0,0,0,2,0h0a5.48,5.48,0,0,1,8.68,5,1.72,1.72,0,0,0,1,1.75,5.47,5.47,0,0,1,0,10,1.71,1.71,0,0,0-1,1.75,5.48,5.48,0,0,1-8.68,5,1.68,1.68,0,0,0-2,0A5.46,5.46,0,0,1,63.48,126Zm4.24-5.18A5.53,5.53,0,0,1,71,121.87a1.64,1.64,0,0,0,1.86.1,1.67,1.67,0,0,0,.85-1.66,5.46,5.46,0,0,1,3.23-5.61,1.67,1.67,0,0,0,1-1.56,1.69,1.69,0,0,0-1-1.57,5.45,5.45,0,0,1-3.23-5.6A1.71,1.71,0,0,0,71,104.4a5.46,5.46,0,0,1-6.48,0A1.71,1.71,0,0,0,61.77,106a5.45,5.45,0,0,1-3.23,5.6,1.69,1.69,0,0,0-1,1.57,1.67,1.67,0,0,0,1,1.56,5.46,5.46,0,0,1,3.23,5.61,1.67,1.67,0,0,0,.85,1.66,1.64,1.64,0,0,0,1.86-.1A5.55,5.55,0,0,1,67.72,120.81Z"/></g></g></g></svg>