<svg xmlns="http://www.w3.org/2000/svg" viewBox="0 0 207.77 207.77"><defs><style>.cls-1{fill:#f4cb47;}.cls-2{fill:none;}</style></defs><title>sharing-rides</title><g id="Layer_2" data-name="Layer 2"><g id="Layer_7" data-name="Layer 7"><g id="sharing-rides"><path class="cls-1" d="M168,135.39c-.42.17-.8.3-1.17.43s-.76.29-1.18.42a15.54,15.54,0,0,1-5.21,1.3h0a.53.53,0,0,0-.46.38,3.33,3.33,0,0,0,.33,3.27,2.65,2.65,0,0,0,2.15,1.05,5.87,5.87,0,0,0,.79-.08,7,7,0,0,0,5-3.91,5,5,0,0,0,.63-2.9l0-.25Z"/><path class="cls-1" d="M92.72,75.44a.7.7,0,0,0,.29-.3c.55-1,1-2,1.6-3l.46-.92-2.22-1.39-.09.21c-.33.71-.71,1.39-1.09,2.06a15.71,15.71,0,0,0-1.89,4.54l-.09.46,1-.59C91.42,76.15,92.09,75.81,92.72,75.44Z"/><path class="cls-1" d="M118.35,97.62a.84.84,0,0,0,.5-.42.61.61,0,0,0-.08-.59c-.46-.79-.92-1.55-1.43-2.35l-.63-1-.42.17v4.92l.29-.09c.17-.08.38-.12.55-.21C117.59,97.92,118,97.75,118.35,97.62Z"/><path class="cls-1" d="M58.6,80.6c-.54-.25-1.09-.54-1.64-.84L49.69,75.9c-5.12-2.77-10.29-5.51-15.42-8.28a1.31,1.31,0,0,0-.71-.12c-.38,0-.76,0-1.14.08l-1.59.13c-.72,0-1.47,0-2.23,0H26.84l.79.5.3.17c15,8.4,28.82,15.71,42.31,22.31C80.79,95.86,89,99.6,96.92,102.79a122.33,122.33,0,0,0,18.24,6.09,29.67,29.67,0,0,0,6.38.84h.3c.5,0,1-.08,1.51-.12.25,0,.46,0,.71-.09l.26,0-.89-3.65h-.16c-.42,0-.89,0-1.31,0a20.05,20.05,0,0,1-2.69,0,43.47,43.47,0,0,1-8.61-2,165,165,0,0,1-18-6.39c-.68-.29-1.35-.59-2.06-.92l-.76-.34c.08-.12.13-1.09.17-1.22a7.09,7.09,0,0,1,.63-1.13A9.89,9.89,0,0,1,92,92.45a.74.74,0,0,1,.51,0c.5.25,1,.54,1.47.79s.71.38,1,.59a5.68,5.68,0,0,0,5.67,0c.46-.25.92-.5,1.43-.8l1.34-.75a.56.56,0,0,1,.47,0,3,3,0,0,1,1.47,1.26c.63,1,1.3,2,2,3a16.94,16.94,0,0,1,2.19,4.2l.08.21.21-.12a3,3,0,0,0,.46-.3c.38-.21.72-.46,1.09-.67a.57.57,0,0,0,.26-.88c-.13-.25-.26-.46-.38-.72-.25-.46-.46-1-.76-1.42-1-1.69-.88-1.64-1.89-3.2-.17-.25-.29-.46-.46-.71a7.7,7.7,0,0,0-2.44-2.78,5.59,5.59,0,0,0,.88-2.89v-.76c0-1,0-2.06,0-3.07a5.62,5.62,0,0,0-2.81-4.79c-.88-.54-1.85-1.13-3-1.76a5.58,5.58,0,0,0-5.84,0c-1.13.63-2.05,1.13-2.9,1.64a5.54,5.54,0,0,0-2.85,4A13,13,0,0,0,89,84.72v1a7.25,7.25,0,0,0,1,4.67,8.83,8.83,0,0,0-2.48,3.36c-.08.17-.16,1.13-.25,1.3L61.63,82.16A3.84,3.84,0,0,1,63,80.6a.53.53,0,0,1,.59,0l1.77,1a4.92,4.92,0,0,1,.71.42,5.85,5.85,0,0,0,6.09,0l1.52-.88.67-.38c.8-.46,1-.42,1.64.17a5.15,5.15,0,0,1,.75.88l.63.93a1.79,1.79,0,0,0,.3.42l2.48,3.78,2.52-1.1-.93-1.42L80,81.74a7,7,0,0,1-.42-.67,7.73,7.73,0,0,0-2.4-2.73,2.75,2.75,0,0,1,.21-.51,5,5,0,0,0,.42-1.51c.13-1.51.13-3,.13-4.41a5.65,5.65,0,0,0-2.77-5c-1-.63-2-1.22-3.11-1.81a5.61,5.61,0,0,0-5.63,0c-1.18.63-2.23,1.22-3.2,1.81A5.31,5.31,0,0,0,60.53,71a22.39,22.39,0,0,0-.08,2.31v1.22a6.86,6.86,0,0,0,.88,3.91l-2,2.35Zm33,4.88V83.71A3.06,3.06,0,0,1,93.1,81c.92-.59,1.93-1.13,3.19-1.8a3,3,0,0,1,3,0,30.9,30.9,0,0,1,3.24,1.89A3.08,3.08,0,0,1,104,83.8v3.32a3.18,3.18,0,0,1-1.55,2.81c-1.06.63-2.15,1.26-3.2,1.81a3.07,3.07,0,0,1-2.94,0c-1-.55-2.1-1.09-3.15-1.77a3.12,3.12,0,0,1-1.6-2.81V85.94ZM75.32,73.88v.55c0,.5,0,1-.08,1.55a2.92,2.92,0,0,1-1.51,2.19c-1,.59-2.06,1.22-3.15,1.8a3,3,0,0,1-3.07,0c-.76-.38-1.51-.84-2.23-1.22l-.67-.37a3.23,3.23,0,0,1-1.76-3V72.16a3.31,3.31,0,0,1,1.72-3c1-.54,1.93-1.13,2.94-1.63a3,3,0,0,1,3.15,0c.92.5,1.89,1,3,1.76a3.25,3.25,0,0,1,1.59,2.82V73.8Z"/><path class="cls-1" d="M120.37,87.41l.5.72.25-.47a1.62,1.62,0,0,0,.17-.29c.17-.34.38-.71.55-1.05.38-.67.71-1.39,1.09-2.06a3.82,3.82,0,0,1,.25-.46,11.1,11.1,0,0,1,1.18-1.89,2.38,2.38,0,0,1,3.15-.59,6.57,6.57,0,0,0,6.51,0,2.79,2.79,0,0,1,3.83.92c.21.3.37.59.58.88a14.62,14.62,0,0,0,.93,1.35,1,1,0,0,1,.12,1.26,4.22,4.22,0,0,0-.42,1.39,6,6,0,0,0,0,2.56l.05.21,2-.72v-.71a5.23,5.23,0,0,1,1.26-3.32,3.47,3.47,0,0,1,5-.46,6.19,6.19,0,0,1,.88,1c.13.16.3.38.46.54l.09.13,1.85-.67-.09-.21a6.33,6.33,0,0,0-3.36-3.32,5.53,5.53,0,0,0-5.63.88c-.25-.34-.46-.71-.67-1a6.9,6.9,0,0,0-3.19-3.19l0-.05.29-.29a5.6,5.6,0,0,0,1.64-4V71a5.71,5.71,0,0,0-2.86-5.09c-1-.63-2-1.22-3-1.76a5.61,5.61,0,0,0-5.67-.05c-1,.51-2,1.1-3.16,1.81a5.39,5.39,0,0,0-2.73,4.12,33.38,33.38,0,0,0-.08,4v.46a5.56,5.56,0,0,0,2,4.29s.08.08.12.08a6,6,0,0,0-2.56,2.52c-.67,1.22-1.3,2.44-1.93,3.66l-.21.38a.72.72,0,0,0,0,.67A14.81,14.81,0,0,0,120.37,87.41Zm10.42-21.47a3.7,3.7,0,0,1,1.68.46c1.17.68,2.06,1.18,2.9,1.68A3.32,3.32,0,0,1,137,70.86v2h0v.51c0,.5,0,1-.09,1.59a3,3,0,0,1-1.51,2.19c-1,.63-2.14,1.26-3.07,1.76a3.1,3.1,0,0,1-3.19,0l-2.9-1.59a3.3,3.3,0,0,1-1.72-3c0-1.13,0-2.26,0-3.36a3.24,3.24,0,0,1,1.68-2.9c.92-.54,1.93-1.09,2.94-1.68A3.21,3.21,0,0,1,130.79,65.94Z"/><path class="cls-1" d="M96.37,64.09c0,.09.09.13.13.21a1.09,1.09,0,0,0,.34.46l.46.3c1.3.8,2.6,1.64,4,2.39a5.57,5.57,0,0,0,5.76,0l1.59-.88.63-.38c.76-.42,1-.42,1.56.21l.5.63c.21.34.46.67.67,1l2.57,3.91,2.39-1-.12-.21-.93-1.43c-.75-1.18-1.47-2.23-2.18-3.36-.38-.51-.76-1-1.18-1.52-.17-.21-.33-.37-.5-.58a6.93,6.93,0,0,0,.88-4.42V57.29A5.7,5.7,0,0,0,110,52.2l-2.94-1.72a5.71,5.71,0,0,0-5.72-.09c-1.05.55-2.1,1.14-3.15,1.81a5.43,5.43,0,0,0-2.77,4.33c-.08,1-.08,1.89-.08,2.86v1A5.47,5.47,0,0,0,96.37,64.09Zm7.74-11.76a3.21,3.21,0,0,1,1.59.46c1.09.63,2.1,1.18,3,1.76a3.16,3.16,0,0,1,1.59,2.69v2h0v1.55a3.19,3.19,0,0,1-1.64,2.78c-.88.54-1.93,1.13-3,1.72a3.14,3.14,0,0,1-3.11,0c-1-.55-2-1.13-3-1.68a3.15,3.15,0,0,1-1.68-2.9v-3.4a3.21,3.21,0,0,1,1.68-2.86c.88-.5,1.93-1.13,3-1.72A3,3,0,0,1,104.11,52.33Z"/><path class="cls-1" d="M131.42,103.76c-.47.12-.93.21-1.35.33l-.21,0,1.09,3.62.34,0c.08,0,.17,0,.25,0a99.83,99.83,0,0,0,15.68-4.87,54.27,54.27,0,0,0,12.89-7.19c.84-.67,1.64-1.38,2.44-2,.34-.34.72-.63,1-.93l.17-.12-2.44-3-.17.17a38.83,38.83,0,0,1-9,6.64,80.85,80.85,0,0,1-17.77,6.8C133.43,103.29,132.43,103.5,131.42,103.76Z"/><path class="cls-1" d="M196.5,117.12l-.12-.3-1.22,1.26c-.8.84-1.64,1.68-2.44,2.53l-1.05,1-.93.92a.83.83,0,0,0-.29.55,4.3,4.3,0,0,0,.55,2.6,1.53,1.53,0,0,0,2.14.63,5.14,5.14,0,0,0,1.6-1.26,9.22,9.22,0,0,0,2.06-5A5.86,5.86,0,0,0,196.5,117.12Z"/><path class="cls-1" d="M55.24,106l-.42.26c-.38.25-.8.46-1.18.71-.88.55-1.76,1.09-2.64,1.68a4.22,4.22,0,0,1-4.54.13c-.3-.17-.59-.3-.84-.47l-.17-.08c-.84-.42-1.68-.88-2.56-1.3a5.21,5.21,0,0,1-3.24-4.33c-.08-.63-.17-1.3-.29-1.93a13.49,13.49,0,0,1-.25-3.87l.08-.59-3.87.8,0,.38v.29c0,.26,0,.51,0,.8.08.76.21,1.47.29,2.23l0,.17c.09.63.17,1.26.26,1.89a9,9,0,0,0,4.79,7c1.51.84,3,1.6,4.58,2.4a8.11,8.11,0,0,0,3.65.92,6.78,6.78,0,0,0,2.23-.37,15.44,15.44,0,0,0,2.44-1.22l.63-.38c.54-.34,1.09-.67,1.59-1l.67-.42.34-.21Z"/><path class="cls-1" d="M119.44,138.55l-.38.25c-.37.25-.75.5-1.17.8-.84.58-1.68,1.17-2.52,1.8a4.2,4.2,0,0,1-4.54.38c-.3-.12-.59-.25-.84-.38l-.21-.08c-.84-.38-1.72-.8-2.61-1.18a5.11,5.11,0,0,1-3.44-4.16c-.09-.63-.25-1.3-.38-1.89a12.15,12.15,0,0,1-.46-3.86l0-.59-3.82,1,0,.38c0,.08,0,.21,0,.29,0,.25,0,.5.08.8.13.71.3,1.47.42,2.18s.26,1.35.38,2a9,9,0,0,0,5.17,6.76c1.55.76,3.11,1.43,4.71,2.15a7.92,7.92,0,0,0,3.69.71,6.71,6.71,0,0,0,2.19-.5,11.28,11.28,0,0,0,2.31-1.35c.21-.12.42-.29.63-.42a17.19,17.19,0,0,0,1.55-1.09c.21-.17.42-.29.63-.46l.3-.21Z"/><path class="cls-1" d="M25.58,67.41l0,1.93c0,1.26.08,2.57.12,3.83l.09,2.22c.08,3,.21,6,.29,9a3,3,0,0,0,1.05,2.22c2.44,1.68,4,2.69,6.64,4.42a2.75,2.75,0,0,0,3.78-.17c.17-.13.34-.3.47-.42a8.85,8.85,0,0,1,2.64-1.85,9,9,0,0,1,8.36.38c1.64,1,3.36,1.93,5.09,2.85a10,10,0,0,1,5.5,8.15c.17,1.43.38,2.82.63,4.25A5.05,5.05,0,0,0,63,108c3.57,1.85,7.1,3.7,10.68,5.5l23.53,11.35s2.6.76,3.73-.38l.47-.46a9.79,9.79,0,0,1,2.52-2,9,9,0,0,1,8.36-.08c1.68.84,3.44,1.76,5.25,2.56a10,10,0,0,1,5.93,7.82c.25,1.38.54,2.77.84,4.2a5,5,0,0,0,2.94,3.61c3.65,1.64,7.9,3,11.55,4.66,3.83,1.56,7.69,3.07,11.51,4.63a5.94,5.94,0,0,0,3.41.12,31.4,31.4,0,0,0,7.22-2.14c2-.84,4.12-1.6,6.14-2.35.88-.34,1.76-.63,2.6-1l2.95-1.09c2.85-1.05,5.75-2.14,8.65-3.24a3.18,3.18,0,0,0,1.22-.92c3-3.45,6-6.85,8.78-10.13a1.88,1.88,0,0,1,1.43-.8,4,4,0,0,0,2.56-1.47,2.86,2.86,0,0,0,.34-.37l.59-.64-.05.59a8.48,8.48,0,0,1-2,5.13c-3.24,3.78-6.26,7.27-9.21,10.71a2.43,2.43,0,0,1-1.09.76c-2.31.88-4.66,1.76-7,2.65-4.62,1.72-9.37,3.53-14,5.38a44.41,44.41,0,0,1-7.1,2.31c-1,.21-1.93.29-2.9.42l-.54,0h-.42a5.26,5.26,0,0,1-1.73-.34c-4.28-1.72-8.57-3.4-12.81-5.08h0l-.34-.13s0,0-.08,0c-3.78-1.51-8.07-2.61-11.43-4.2a9,9,0,0,1-5.13-6.56c-.12-.67-.25-1.3-.37-2-.21-1-.38-2.06-.63-3.07a5.25,5.25,0,0,0-2.86-3.65c-1.89-1-3.95-2-6.43-3.16a4.78,4.78,0,0,0-5.21.89l-.55.54c-.33.34-.67.72-1,1-2.22,2-4.7,2.1-8.06.72l-24-11.68c-.13,0-.21-.13-.34-.17-3.23-1.68-6.6-3.4-9.87-5.17a8.82,8.82,0,0,1-4.75-6.85c-.09-.67-.21-1.34-.3-2-.12-1-.29-2.06-.46-3.11a5.35,5.35,0,0,0-2.64-3.83C51,94.51,49,93.42,46.58,92.08a4.72,4.72,0,0,0-5.25.63,4.37,4.37,0,0,0-.54.5c-.38.34-.72.67-1.1,1a6.55,6.55,0,0,1-8,.16l-2.4-1.72C27.8,91.57,26.92,91,25.58,90c-.26-.16-.51-.37-.76-.54a6.27,6.27,0,0,1-2.44-5c-.12-3.91-.25-7.86-.38-11.68,0-1.6-.08-3.24-.12-4.83a5.56,5.56,0,0,0,0-.8l-.05-.67Z"/><path class="cls-1" d="M39.48,64.64a63.68,63.68,0,0,1,26-4.37,59.37,59.37,0,0,1,16.94,3.28,67,67,0,0,1,26.42,17.56,87.72,87.72,0,0,1,13,18.15,59.39,59.39,0,0,1,4.91,11,8.37,8.37,0,0,0,2.65,3.87l8.19,6.8,4.42,3.66,3.78,3.15c2.31,1.93,4.66,3.91,7,5.84a10.82,10.82,0,0,0,7,2.69,11.23,11.23,0,0,0,4-.76c5.93-2.18,12-4.41,17.78-6.59l1.09-.42a2.59,2.59,0,0,0,1-.63c3.37-3.37,6.73-6.68,10.05-10a8.5,8.5,0,0,0,2.48-5.92v-.25a2.05,2.05,0,0,0,0-.55A7.76,7.76,0,0,0,192.3,105c-3.61-2.18-13.28-8.27-18.45-11.55-1.55-1-2.64-1.68-3.11-2a17.18,17.18,0,0,1-5.08-4.63c-1.85-2.69-3.53-5-5.08-7.1a129,129,0,0,0-18.53-20.33,74.5,74.5,0,0,0-15-10.17,56.82,56.82,0,0,0-26.9-6,65.76,65.76,0,0,0-11.63,1.22c-2.78.54-5.55,1.22-8.24,1.89l-1.43.34A9.82,9.82,0,0,1,72.05,46c-1.43-.67-3-1.26-4.41-1.8L66,43.59a5.14,5.14,0,0,0-2.61-.25L58.56,44c-4.5.63-9,1.3-13.45,1.93a1.61,1.61,0,0,1-.46,0,4.05,4.05,0,0,0-1.72.47c-5.46,3.57-11,7.26-16.39,10.84l-4.2,2.77A2.84,2.84,0,0,0,21,63a2.89,2.89,0,0,0,2.23,2.43A25,25,0,0,0,39.48,64.64ZM27.42,61.32l4.5-3c4.08-2.69,8.28-5.51,12.44-8.2a3.08,3.08,0,0,1,1.3-.33l.29-.05,10.51-1.51,4.24-.59c1-.16,2.1-.29,3.15-.42a2.39,2.39,0,0,1,1.1.13c.42.17.79.29,1.21.46,1.43.55,3,1.09,4.33,1.77a13.41,13.41,0,0,0,9.16.88l1.68-.42c2.65-.63,5.38-1.3,8.11-1.81a56.71,56.71,0,0,1,28,1.35,60.66,60.66,0,0,1,18.94,10.12,103.07,103.07,0,0,1,15.89,15.51,158.78,158.78,0,0,1,10.33,13.69,19.26,19.26,0,0,0,5.68,5.42c1.8,1.14,17.85,11.35,22,13.79a4.61,4.61,0,0,1,1.09,7,6,6,0,0,1-.8.8l-1.76,1.77c-2.48,2.47-5,5-7.48,7.43a2.37,2.37,0,0,1-.8.51l-2.77,1c-5.08,1.84-10.34,3.73-15.5,5.58a6.74,6.74,0,0,1-7-1.3c-3-2.44-6-4.91-8.87-7.35-1.42-1.18-2.89-2.4-4.32-3.57-1.05-.89-2.15-1.77-3.2-2.65-2.27-1.89-4.62-3.82-6.93-5.76a6.52,6.52,0,0,1-2.23-3.44,30.93,30.93,0,0,0-2.6-6.64,93.49,93.49,0,0,0-13.7-20.88A73.13,73.13,0,0,0,90.7,63,62.94,62.94,0,0,0,71.42,57,66.32,66.32,0,0,0,63,56.45h-.25a68.94,68.94,0,0,0-24.62,4.7,22.86,22.86,0,0,1-10.42,1.47.72.72,0,0,1-.72-.5A.77.77,0,0,1,27.42,61.32Z"/><rect class="cls-2" width="207.77" height="207.77"/></g></g></g></svg>