<svg xmlns="http://www.w3.org/2000/svg" xmlns:xlink="http://www.w3.org/1999/xlink" viewBox="0 0 1611.02 1610.97"><defs><style>.cls-1{fill:url(#linear-gradient);}.cls-2{fill:url(#linear-gradient-2);}.cls-3{fill:url(#linear-gradient-3);}.cls-4{fill:url(#linear-gradient-4);}.cls-5{fill:url(#linear-gradient-5);}.cls-6{fill:url(#linear-gradient-6);}.cls-7{fill:url(#linear-gradient-7);}.cls-8{fill:url(#linear-gradient-8);}.cls-9{fill:#65ace5;}.cls-10{fill:#fff;}.cls-11{fill:#a9bbd8;}.cls-12{fill:#dce4f4;}</style><linearGradient id="linear-gradient" x1="-1097.43" y1="3437.74" x2="514.28" y2="3437.74" gradientTransform="matrix(-0.75, -0.66, 0.66, -0.75, -1940.97, 3505.99)" gradientUnits="userSpaceOnUse"><stop offset="0" stop-color="#65ace5"/><stop offset="1" stop-color="#65ace5" stop-opacity="0.3"/></linearGradient><linearGradient id="linear-gradient-2" x1="-961.47" y1="3470.85" x2="566.15" y2="3470.85" gradientTransform="translate(-2002.23 3451.13) rotate(-136.23)" xlink:href="#linear-gradient"/><linearGradient id="linear-gradient-3" x1="-836.53" y1="3468.53" x2="607" y2="3468.53" gradientTransform="translate(-2074.94 3331.48) rotate(-132.97)" xlink:href="#linear-gradient"/><linearGradient id="linear-gradient-4" x1="-794.49" y1="3489.55" x2="564.96" y2="3489.55" gradientTransform="translate(-2074.94 3331.48) rotate(-132.97)" xlink:href="#linear-gradient"/><linearGradient id="linear-gradient-5" x1="-752.45" y1="3510.57" x2="522.91" y2="3510.57" gradientTransform="translate(-2074.94 3331.48) rotate(-132.97)" xlink:href="#linear-gradient"/><linearGradient id="linear-gradient-6" x1="-710.41" y1="3531.59" x2="480.87" y2="3531.59" gradientTransform="translate(-2074.94 3331.48) rotate(-132.97)" xlink:href="#linear-gradient"/><linearGradient id="linear-gradient-7" x1="-668.37" y1="3552.61" x2="438.83" y2="3552.61" gradientTransform="translate(-2074.94 3331.48) rotate(-132.97)" xlink:href="#linear-gradient"/><linearGradient id="linear-gradient-8" x1="-626.32" y1="3573.64" x2="396.79" y2="3573.64" gradientTransform="translate(-2074.94 3331.48) rotate(-132.97)" xlink:href="#linear-gradient"/></defs><title>telegram</title><g id="Layer_2" data-name="Layer 2"><g id="Layer_4" data-name="Layer 4"><g id="Layer_9" data-name="Layer 9"><path class="cls-1" d="M805,1611c-188.2,0-377.16-65.36-529.68-198.61C-59.32,1120-93.73,609.92,198.61,275.28l10.57,9.23c-287.27,328.8-253.46,830,75.34,1117.28s830,253.47,1117.29-75.35l10.56,9.22C1253.27,1517.77,1029.67,1611,805,1611Z"/><path class="cls-2" d="M849.81,1567.67q-13.89.8-27.86,1.08c-204.21,4.41-397.69-70.76-544.79-211.66s-230.54-331-234.94-535.17S113,424.25,253.89,277.15l10.12,9.7C125.71,431.24,51.91,621.16,56.23,821.63s86.23,387,230.63,525.34,334.31,212.1,534.78,207.77,387-86.23,525.34-230.63l10.12,9.7C1222.64,1474.2,1043.4,1556.61,849.81,1567.67Z"/><path class="cls-3" d="M806.24,1526.92q-13.15,0-26.35-.46c-192.89-6.84-371.36-88.19-502.56-229S77.66,972.76,84.51,779.88s88.2-371.36,229.05-502.56l9.55,10.27C185,416.22,105.23,591.24,98.51,780.37S159,1149.74,287.6,1287.86s303.65,217.88,492.79,224.6c189,6.46,369.35-60.44,507.48-189.09l9.55,10.27C1163,1458.84,989.45,1526.92,806.24,1526.92Z"/><path class="cls-4" d="M806.2,1484.91q-12.39,0-24.83-.44c-181.64-6.46-349.71-83.06-473.27-215.72S120.06,963,126.52,781.36s83-349.72,215.7-473.27l9.55,10.26C221.85,439.35,146.84,604,140.52,781.87s56.83,347.41,177.84,477.33,285.61,205,463.52,211.26c177.57,6.22,347.41-56.84,477.33-177.85l9.56,10.26C1142.17,1420.79,978.73,1484.91,806.2,1484.91Z"/><path class="cls-5" d="M805.72,1442.87c-171,0-341.42-68.1-466.85-202.77C223,1115.65,162.46,953.27,168.5,782.85s77.93-328.09,202.38-444l9.55,10.27c-121.71,113.35-192,267.57-197.91,434.24s53.25,325.48,166.61,447.18,267.56,192,434.24,197.91c166.82,6.15,325.48-53.23,447.18-166.59l9.56,10.26C1117.47,1386.33,961.39,1442.87,805.72,1442.87Z"/><path class="cls-6" d="M805.69,1400.84c-159.67,0-318.89-63.62-436.06-189.39C261.36,1095.2,204.85,943.52,210.51,784.34s72.78-306.45,189-414.72l9.55,10.27c-113.51,105.7-179,249.52-184.57,405s49.65,303.54,155.38,417.05c218.57,234.68,587.35,247.75,822,29.19l9.55,10.27C1096.91,1348,951.12,1400.84,805.69,1400.84Z"/><path class="cls-7" d="M806.06,1358.83q-10.08,0-20.2-.35c-147.94-5.26-284.83-67.65-385.46-175.69s-153.15-249-147.89-396.94S320.14,501,428.18,400.39l9.55,10.26c-105.3,98.07-166.1,231.5-171.22,375.69s46.07,281.6,144.15,386.9,231.48,166.11,375.69,171.22c143.73,5,281.59-46,386.9-144.13l9.55,10.26C1079.7,1306.61,946.6,1358.83,806.06,1358.83Z"/><path class="cls-8" d="M805.66,1316.79c-137.13,0-273.88-54.63-374.5-162.65-93-99.83-141.51-230.11-136.65-366.81S357,524.12,456.84,431.14l9.55,10.26C369.3,531.83,313.23,654.86,308.51,787.83S351,1047.5,441.43,1144.58c187,200.75,502.42,212,703.16,25l9.56,10.26C1055.76,1271.45,930.55,1316.79,805.66,1316.79Z"/><path class="cls-9" d="M1412.37,1335.66l-10.56-9.22c138.93-159,207.6-363,193.35-574.22s-109.67-404.13-268.69-543.05C997.65-78.08,496.43-44.31,209.18,284.51l-10.57-9.23C491-59.34,1001.07-93.71,1335.69,198.6c161.83,141.4,259,337.67,273.46,552.68S1553.76,1173.82,1412.37,1335.66Z"/><path class="cls-9" d="M1357.1,1333.81l-10.12-9.7c138.31-144.39,212.1-334.31,207.77-534.78s-86.23-387-230.63-525.33S989.81,51.9,789.34,56.22,402.32,142.45,264,286.85l-10.12-9.7c140.91-147.1,331-230.32,535.16-234.94,204.2-4.41,397.67,70.76,544.77,211.67s230.54,331,234.94,535.16S1498,1186.71,1357.1,1333.81Z"/><path class="cls-9" d="M1297.42,1333.64l-9.55-10.27c285.57-266,301.51-714.68,35.53-1000.27S608.68,21.6,323.11,287.59l-9.55-10.27c291.24-271.24,748.85-255,1020.1,36.23S1588.65,1062.4,1297.42,1333.64Z"/><path class="cls-9" d="M1268.77,1302.87l-9.56-10.26c268.62-250.18,283.6-672.24,33.42-940.85S620.36,68.18,351.77,318.35l-9.55-10.26C616.48,52.66,1047.44,67.94,1302.9,342.21c123.54,132.65,188,305.74,181.58,487.39S1401.42,1179.32,1268.77,1302.87Z"/><path class="cls-9" d="M1240.11,1272.12l-9.56-10.26c251.65-234.39,265.7-629.8,31.32-881.44s-629.78-265.7-881.44-31.3l-9.55-10.27c257.28-239.63,661.59-225.32,901.25,32S1497.4,1032.47,1240.11,1272.12Z"/><path class="cls-9" d="M1211.46,1241.36l-9.55-10.27c113.5-105.71,179-249.53,184.57-405s-49.65-303.56-155.38-417S981.57,230,826.14,224.51s-303.56,49.65-417,155.38l-9.55-10.27c116.24-108.27,268-165,427.09-159.12,159.18,5.65,306.47,72.78,414.74,189s164.77,267.92,159.11,427.1S1327.7,1133.09,1211.46,1241.36Z"/><path class="cls-9" d="M1182.8,1210.59l-9.55-10.26c217.72-202.79,229.87-544.89,27.09-762.61S655.45,207.87,437.73,410.65l-9.55-10.26c108.05-100.62,248.86-153,397-147.91,147.93,5.26,284.83,67.65,385.46,175.69C1418.64,651.55,1406.17,1002.54,1182.8,1210.59Z"/><path class="cls-9" d="M1154.15,1179.82l-9.56-10.26c200.75-187,212-502.42,25-703.18s-502.42-212-703.18-25l-9.55-10.26c206.39-192.22,530.74-180.72,723,25.69S1360.54,987.56,1154.15,1179.82Z"/><path class="cls-10" d="M545.5,143.15,489,428.14s-7.91,19.76-29.65,10.27l-130.44-100-47.43-22.93L201.62,288.6s-12.26-4.34-13.44-13.83S202,260.15,202,260.15l317.4-124.52S545.5,124.17,545.5,143.15Z"/><path class="cls-11" d="M378.91,376.75l-51.6,47s-4,3.06-8.44,1.15l9.88-87.38Z"/><path class="cls-12" d="M318.87,424.94s-3.81-.36-8.56-15.38-28.85-94.08-28.85-94.08L473.17,193.74s11.06-6.72,10.67,0c0,0,2,1.19-3.95,6.72S329.29,336,329.29,336Z"/></g></g></g></svg>
