<svg xmlns="http://www.w3.org/2000/svg" viewBox="0 0 589.81 258.39"><defs><style>.cls-1{fill:#f3cb48;}.cls-2{fill:#fefefe;}.cls-3{fill:#f3cb49;}.cls-4{fill:#f4cb46;}</style></defs><title>trading.complex</title><g id="Layer_2" data-name="Layer 2"><g id="Layer_8" data-name="Layer 8"><g id="trading"><g id="Layer_1-2" data-name="Layer 1"><path class="cls-1" d="M513.26,124.09l-15-9.48V102.49a3.47,3.47,0,0,0-6.93,0v9a23.08,23.08,0,0,0-10.39-.31v-8.66a3.46,3.46,0,0,0-6.92,0v11.15l-.26.12-8.09,4.63a18.75,18.75,0,0,0,0,32.47l8.26,4.76v38.45l-15.33-8.66a3.48,3.48,0,0,0-3.46,6l18.67,10.54h0v12.13a3.46,3.46,0,0,0,6.92,0v-9.72a22.17,22.17,0,0,0,10.4-.38v10.1a3.46,3.46,0,0,0,6.92,0V201.07l6-3.47a18.75,18.75,0,0,0,0-32.52l-6-3.47V122.82L509.32,130a3.47,3.47,0,0,0,3.7-5.86Zm-44,20.78a11.83,11.83,0,0,1,0-20.49l4.82-2.79v26ZM481,197.43V159.68l10.39,6v31.17a16.31,16.31,0,0,1-10.39.64Zm19.86-26.34a11.83,11.83,0,0,1,0,20.5L498.32,193V169.67ZM481,151.64V118.23a16.23,16.23,0,0,1,10.39.52v38.93Z"/><path class="cls-1" d="M59.26,200,39,188.32a12.54,12.54,0,0,0-12.49,0L6.25,200A12.54,12.54,0,0,0,0,210.83v23.38A12.55,12.55,0,0,0,6.25,245l20.26,11.69a12.54,12.54,0,0,0,12.49,0L59.26,245a12.54,12.54,0,0,0,6.26-10.83V210.83A12.53,12.53,0,0,0,59.26,200ZM30,194.31a5.58,5.58,0,0,1,5.56,0L55.8,206l.31.21L35.47,217.38a9.67,9.67,0,0,0-2.37,1.52,11.52,11.52,0,0,0-2.31-1.73L10.86,205.4ZM9.72,239a5.56,5.56,0,0,1-2.79-4.82V211.09l20.35,12a4.35,4.35,0,0,1,2.16,3.76v23.55Zm46.06,0-19.39,11.2V226.87a3.28,3.28,0,0,1,1.73-3.12l20.4-11v21.47A5.58,5.58,0,0,1,55.8,239Z"/><path class="cls-2" d="M354.13,69.36a5.89,5.89,0,1,0,0,.14Z"/><path class="cls-2" d="M348.15,54.54a5.92,5.92,0,1,0-5.84-6A5.91,5.91,0,0,0,348.15,54.54Z"/><path class="cls-1" d="M301.1,0c2.18.68,4.48.69,6.72,1.16a59.24,59.24,0,0,1,40.12,29.58c.47.85.56,1.3-.48,1.73a31.23,31.23,0,0,0-4.18,2.17c-1,.6-1.29.24-1.73-.59a50.8,50.8,0,0,0-27.9-23.81,51.81,51.81,0,1,0,27.59,74.27c1-1.73,1-1.73,2.75-.78,1.22.65,2.43,1.32,3.68,1.89.76.35.86.64.45,1.42a59,59,0,0,1-22.4,23A57,57,0,0,1,291,117.76a58.13,58.13,0,0,1-51.59-43.22c-5.37-20-1.15-38.22,12.26-54.07A57.45,57.45,0,0,1,287.33.69a17.9,17.9,0,0,0,4-.66Z"/><path class="cls-3" d="M354.13,69.36a5.91,5.91,0,1,1-5.93-6,5.92,5.92,0,0,1,5.93,6Z"/><path class="cls-1" d="M348.15,54.54a5.91,5.91,0,1,1,6-5.91,5.81,5.81,0,0,1-5.7,5.91Z"/><polygon class="cls-4" points="241.46 120.8 205.76 142.46 214.41 156.78 173.93 146.77 183.92 106.3 192.55 120.59 225.65 101.05 221.76 95.32 194.9 111.21 181.24 88.61 165.63 151.78 228.81 167.39 215.16 144.78 247.09 125.41 241.46 120.8"/><polygon class="cls-4" points="446.97 57.06 383.79 72.66 399.4 135.84 413.06 113.23 442.37 130.55 445.38 124.42 410.71 103.85 402.08 118.15 392.08 77.66 432.57 67.67 423.92 81.97 459.62 103.63 465.28 99.04 433.32 79.66 446.97 57.06"/><polygon class="cls-4" points="589.81 242.03 574.21 178.83 560.55 201.46 529.97 183.33 528.5 190.43 562.88 210.84 571.52 196.52 581.52 237.01 541.03 247.01 549.68 232.7 513.99 211.05 508.32 215.63 540.28 235.01 526.63 257.61 589.81 242.03"/><path class="cls-1" d="M142.74,151.73V139.24a5.55,5.55,0,0,1,2.79-4.81l20.26-11.69a5.11,5.11,0,0,1,1.3-.54l1.94-7.1a12.45,12.45,0,0,0-6.72,1.64l-20.25,11.69a12.55,12.55,0,0,0-6.25,10.83v8.66Z"/><path class="cls-1" d="M194,164.52a5.51,5.51,0,0,1-2.42,2.91L171.3,179.07a5.58,5.58,0,0,1-5.56,0l-13.17-7.6,1.11,8.66,8.66,5a12.54,12.54,0,0,0,12.49,0l20.26-11.69a12.48,12.48,0,0,0,5.68-7.2Z"/><path class="cls-1" d="M150,151.74l-20.28-11.69a12.53,12.53,0,0,0-12.48,0L97,151.74a12.55,12.55,0,0,0-6.25,10.83v9.57l6.93,3.61v-13l20.35,12a4.33,4.33,0,0,1,2.16,3.75v23.56l-13.66-7.9.19,8.11,10.56,6.21a12.5,12.5,0,0,0,12.49,0L150,196.82A12.49,12.49,0,0,0,156.26,186V162.62A12.52,12.52,0,0,0,150,151.74Zm-26.18,18.9a10.81,10.81,0,0,0-2.31-1.73l-19.93-11.78,19-11a5.58,5.58,0,0,1,5.56,0l20.26,11.69.31.21-20.5,11.11a9.64,9.64,0,0,0-2.44,1.53ZM149.32,186a5.57,5.57,0,0,1-2.79,4.81L127.12,202V178.6a3.28,3.28,0,0,1,1.73-3.11l20.4-11Z"/><path class="cls-1" d="M104.71,176.25,84.44,164.56a12.53,12.53,0,0,0-12.48,0L51.8,176.25a12.49,12.49,0,0,0-6.25,10.82v9.11l6.92,3.88V187.33l20.35,12A4.35,4.35,0,0,1,75,203.11v23.55l-13.72-7.93.73,8.42L72,233a12.54,12.54,0,0,0,12.49,0l20.26-11.69a12.53,12.53,0,0,0,6.26-10.82V187.06A12.53,12.53,0,0,0,104.71,176.25ZM78.52,195.14a11.45,11.45,0,0,0-2.3-1.73L56.28,181.63l19-11a5.58,5.58,0,0,1,5.56,0l20.27,11.69.31.21L80.82,193.67a10,10,0,0,0-2.28,1.47ZM104,210.45a5.57,5.57,0,0,1-2.78,4.82l-19.42,11.2V203.11A3.3,3.3,0,0,1,83.54,200l20.4-11Z"/><polygon class="cls-1" points="437.69 181.22 343.04 124.42 349.52 120.19 441.24 175.26 437.69 181.22"/><rect class="cls-1" x="540.63" y="125.41" width="6.95" height="37.66" transform="translate(147.93 544.11) rotate(-60.11)"/></g></g></g></g></svg>