<svg xmlns="http://www.w3.org/2000/svg" viewBox="0 0 167.59 167.59"><defs><style>.cls-1,.cls-2{fill:#fff;}.cls-2{fill-rule:evenodd;}</style></defs><title>github-icon</title><g id="Layer_2" data-name="Layer 2"><g id="page"><g id="github-icon"><path class="cls-1" d="M83.8,2A81.8,81.8,0,1,1,2,83.8,81.88,81.88,0,0,1,83.8,2m0-2a83.8,83.8,0,1,0,83.79,83.8A83.89,83.89,0,0,0,83.8,0Z"/><path class="cls-2" d="M83.8,6A77.81,77.81,0,0,0,59.2,157.62c3.89.72,5.32-1.69,5.32-3.75,0-1.85-.07-8-.11-14.48-21.64,4.71-26.21-9.18-26.21-9.18-3.54-9-8.64-11.38-8.64-11.38-7.06-4.83.54-4.73.54-4.73,7.81.55,11.92,8,11.92,8,6.94,11.89,18.2,8.45,22.64,6.46.7-5,2.71-8.46,4.94-10.4-17.28-2-35.45-8.64-35.45-38.45a30.1,30.1,0,0,1,8-20.88c-.81-2-3.47-9.87.75-20.59,0,0,6.54-2.09,21.4,8a73.77,73.77,0,0,1,39,0c14.84-10.07,21.37-8,21.37-8,4.23,10.72,1.57,18.63.76,20.59a30,30,0,0,1,8,20.88c0,29.88-18.2,36.46-35.53,38.39,2.8,2.41,5.28,7.15,5.28,14.41,0,10.4-.09,18.78-.09,21.34,0,2.08,1.4,4.5,5.34,3.74A77.81,77.81,0,0,0,83.8,6Z"/><path class="cls-1" d="M35.47,117.7a1,1,0,0,1-1.34.24c-.56-.26-.88-.78-.7-1.17s.78-.51,1.34-.25.89.79.7,1.18Z"/><path class="cls-1" d="M38.62,121.21c-.37.35-1.1.19-1.59-.36s-.61-1.26-.23-1.61,1.09-.19,1.6.36.6,1.27.22,1.61Z"/><path class="cls-1" d="M41.68,125.69c-.47.34-1.25,0-1.73-.67s-.48-1.52,0-1.85,1.25,0,1.74.65.47,1.54,0,1.87Z"/><path class="cls-1" d="M45.89,130a1.45,1.45,0,0,1-2-.3A1.24,1.24,0,1,1,45.46,128c.68.63.88,1.53.43,2Z"/><path class="cls-1" d="M51.68,132.54c-.19.61-1.06.88-1.94.62s-1.46-1-1.28-1.59,1.06-.9,1.95-.63,1.46,1,1.27,1.6Z"/><path class="cls-1" d="M58.05,133c0,.64-.73,1.18-1.65,1.19s-1.68-.5-1.69-1.13.73-1.18,1.66-1.19,1.68.5,1.68,1.13Z"/><path class="cls-1" d="M64,132c.11.63-.54,1.27-1.46,1.44s-1.73-.22-1.85-.84.54-1.28,1.44-1.45,1.75.22,1.87.85Z"/></g></g></g></svg>