<svg xmlns="http://www.w3.org/2000/svg" viewBox="0 0 42 42">
  <path d="M21,9.12c3.87,0,4.33,0,5.86.08a7.86,7.86,0,0,1,2.69.5,4.74,4.74,0,0,1,2.75,2.75,7.86,7.86,0,0,1,.5,2.69c.07,1.53.08,2,.08,5.86s0,4.33-.08,5.86a7.86,7.86,0,0,1-.5,2.69,4.74,4.74,0,0,1-2.75,2.75,7.86,7.86,0,0,1-2.69.5c-1.53.07-2,.08-5.86.08s-4.33,0-5.86-.08a7.86,7.86,0,0,1-2.69-.5A4.74,4.74,0,0,1,9.7,29.55a7.86,7.86,0,0,1-.5-2.69c-.07-1.53-.08-2-.08-5.86s0-4.33.08-5.86a7.86,7.86,0,0,1,.5-2.69A4.74,4.74,0,0,1,12.45,9.7a7.86,7.86,0,0,1,2.69-.5c1.53-.07,2-.08,5.86-.08M21,6.5c-3.94,0-4.43,0-6,.09a10.93,10.93,0,0,0-3.52.67A7.53,7.53,0,0,0,7.26,11.5,10.93,10.93,0,0,0,6.59,15c-.07,1.55-.09,2-.09,6s0,4.43.09,6a10.93,10.93,0,0,0,.67,3.52,7.53,7.53,0,0,0,4.24,4.24,10.93,10.93,0,0,0,3.52.67c1.55.07,2,.09,6,.09s4.43,0,6-.09a10.93,10.93,0,0,0,3.52-.67,7.53,7.53,0,0,0,4.24-4.24A10.93,10.93,0,0,0,35.41,27c.07-1.55.09-2,.09-6s0-4.43-.09-6a10.93,10.93,0,0,0-.67-3.52A7.53,7.53,0,0,0,30.5,7.26,10.93,10.93,0,0,0,27,6.59C25.43,6.52,24.94,6.5,21,6.5Z"/>
  <path d="M21,13.56A7.44,7.44,0,1,0,28.44,21,7.44,7.44,0,0,0,21,13.56m0,12.27A4.83,4.83,0,1,1,25.83,21,4.83,4.83,0,0,1,21,25.83Z"/>
  <path d="M30.48,13.26a1.74,1.74,0,1,1-1.74-1.74,1.74,1.74,0,0,1,1.74,1.74"/>
</svg>
