<svg xmlns="http://www.w3.org/2000/svg" viewBox="0 0 42 42">
  <path d="M35,21a3.08,3.08,0,0,0-3.18-2.95,3,3,0,0,0-2,.85,15,15,0,0,0-8.09-2.59l1.36-6.55,4.5,1a2.09,2.09,0,1,0,.27-1.29l-5.14-1a.66.66,0,0,0-.78.5h0l-1.55,7.29a15,15,0,0,0-8.19,2.58A3.07,3.07,0,0,0,8,23.24a2.93,2.93,0,0,0,.83.55,7.21,7.21,0,0,0,0,.93c0,4.7,5.48,8.53,12.24,8.53s12.24-3.82,12.24-8.53a7.22,7.22,0,0,0,0-.93A3.07,3.07,0,0,0,35,21ZM14,23.1a2.1,2.1,0,1,1,2.1,2.11A2.1,2.1,0,0,1,14,23.1ZM26.2,29A8,8,0,0,1,21,30.5a8.12,8.12,0,0,1-5.19-1.62.57.57,0,0,1,.8-.8A6.88,6.88,0,0,0,21,29.4a6.93,6.93,0,0,0,4.39-1.28.59.59,0,0,1,.83,0A.59.59,0,0,1,26.2,29ZM23.73,23.1a2.1,2.1,0,1,1,2.1,2.11A2.1,2.1,0,0,1,23.73,23.1Z"/>
</svg>
