<svg xmlns="http://www.w3.org/2000/svg" viewBox="0 0 42 42">
  <path d="M15.8,32.38c10.57,0,16.36-8.76,16.36-16.35,0-.25,0-.5,0-.74a12.13,12.13,0,0,0,2.87-3,11.22,11.22,0,0,1-3.31.9A5.73,5.73,0,0,0,34.23,10a11.4,11.4,0,0,1-3.65,1.39,5.75,5.75,0,0,0-9.79,5.24,16.32,16.32,0,0,1-11.85-6,5.76,5.76,0,0,0,1.78,7.67,5.71,5.71,0,0,1-2.61-.72v.07a5.76,5.76,0,0,0,4.62,5.64,5.86,5.86,0,0,1-2.6.1,5.76,5.76,0,0,0,5.37,4,11.55,11.55,0,0,1-7.14,2.46A12.73,12.73,0,0,1,7,29.8a16.29,16.29,0,0,0,8.81,2.58"/>
</svg>
