<svg xmlns="http://www.w3.org/2000/svg" viewBox="0 0 72.59 72.59"><defs><style>.cls-1{fill:none;}.cls-2{fill:#fff;}</style></defs><title>medium.complex</title><g id="Layer_2" data-name="Layer 2"><g id="medium"><g id="medium-2" data-name="medium"><rect class="cls-1" width="72.59" height="72.59"/><path id="Shape" class="cls-2" d="M15.53,23.5a2.12,2.12,0,0,0-.68-1.78L9.76,15.6v-.91H25.54l12.2,26.75L48.47,14.69h15v.91l-4.35,4.17A1.26,1.26,0,0,0,58.68,21V51.6a1.28,1.28,0,0,0,.48,1.22L63.41,57v.92H42.06V57l4.4-4.26c.43-.43.43-.56.43-1.22V26.75L34.67,57.8H33l-14.23-31V47.56A2.93,2.93,0,0,0,19.57,50l5.72,6.93v.92H9.08v-.92L14.79,50a2.75,2.75,0,0,0,.74-2.39Z"/></g></g></g></svg>