<svg xmlns="http://www.w3.org/2000/svg" viewBox="0 0 72.59 72.59"><defs><style>.cls-1{fill:none;}.cls-2{fill:#fff;}</style></defs><title>streemit.complex</title><g id="Layer_2" data-name="Layer 2"><g id="medium"><g id="streemit"><rect class="cls-1" width="72.59" height="72.59"/><path class="cls-2" d="M51.23,28.42a16,16,0,0,0-5.7-3.7c1.2-3.5,5.5-4.8,5.5-4.8s-9.9-5.2-20.9-3.1a16.41,16.41,0,0,0-9.7,5.8,15.17,15.17,0,0,0,1.7,21.6,19.89,19.89,0,0,0,3.3,2.2c-1.5,3.7-6.1,4.7-6.1,4.7A38.77,38.77,0,0,0,33.83,56a31.65,31.65,0,0,0,6.9.1,17.52,17.52,0,0,0,10.6-5.2A16,16,0,0,0,51.23,28.42Zm-2.9,20.1a14.83,14.83,0,0,1-8.6,4,29.08,29.08,0,0,1-5.9,0,33.26,33.26,0,0,1-7-1.9,10.66,10.66,0,0,0,2.5-3.6,2.81,2.81,0,0,0-.1-2.2,11.78,11.78,0,0,1,2.4-13.5,12.09,12.09,0,0,1,16.9.1A12.13,12.13,0,0,1,48.33,48.52Z"/></g></g></g></svg>